<svg width="26" height="33" viewBox="0 0 26 33" fill="none" xmlns="http://www.w3.org/2000/svg">
<path fill-rule="evenodd" clip-rule="evenodd" d="M18.0999 1.59277C18.3999 3.24277 17.6499 4.89277 16.7499 6.09277C15.8499 7.29277 14.1999 8.34277 12.5499 8.19277C12.2499 6.54277 12.9999 5.04277 13.8999 3.84277C14.9499 2.64277 16.5999 1.74277 18.0999 1.59277ZM22.8999 27.6928C23.6499 26.4928 24.0999 25.7428 24.6999 24.3928C20.0499 22.5928 19.2999 15.9928 23.9499 13.5928C22.5999 11.7928 20.6499 10.8928 18.6999 10.8928C17.3499 10.8928 16.4499 11.1928 15.5499 11.4928C14.7999 11.7928 14.1999 11.9428 13.4499 11.9428C12.5499 11.9428 11.9499 11.6428 11.0499 11.3428C10.1499 11.0428 9.24994 10.7428 8.19994 10.7428C6.09994 10.7428 3.84994 11.9428 2.49994 14.1928C0.549943 17.1928 0.849944 23.0428 3.99994 27.8428C5.34994 29.6428 6.84994 31.5928 8.79994 31.5928C9.69994 31.5928 10.1499 31.2928 10.7499 31.1428C11.4999 30.8428 12.2499 30.5428 13.4499 30.5428C14.7999 30.5428 15.3999 30.8428 16.1499 31.1428C16.7499 31.4428 17.1999 31.5928 18.0999 31.5928C20.1999 31.5928 21.6999 29.3428 22.8999 27.6928Z" stroke="#212121" stroke-width="1.5" stroke-miterlimit="10" stroke-linecap="round" stroke-linejoin="round"/>
</svg>
