<svg width="40" height="41" viewBox="0 0 40 41" fill="none" xmlns="http://www.w3.org/2000/svg">
<rect y="0.592773" width="40" height="40" rx="20" fill="#F5F5F5"/>
<g clip-path="url(#clip0_1245_1375)">
<path d="M25.0594 22.5771L22.75 21.4553C22.625 21.3959 22.4719 21.424 22.3781 21.5303C22.2687 21.6521 22.1062 21.8334 21.9031 22.0459L21.8156 22.1365C21.3687 22.599 21.2469 22.724 21.1344 22.7428C21.0344 22.7615 20.9375 22.7459 20.6437 22.6053C19.6875 22.1459 19.0625 21.5459 18.9969 21.4803C18.5812 21.0678 18.2156 20.6021 17.9125 20.0896C17.8937 20.0053 17.8844 19.9115 17.9 19.8146C17.9469 19.5365 18.15 19.2459 18.4812 18.974C18.5812 18.8928 18.6219 18.7553 18.5781 18.6303L17.6594 15.9459C17.6156 15.8209 17.4969 15.7334 17.3625 15.7334H16.3062C16.2562 15.7334 16.2094 15.7459 16.1656 15.7678C16.1469 15.7771 14.2031 16.7834 14.7437 19.2584C14.7469 19.2771 14.7531 19.299 14.7625 19.3178C14.8531 19.5303 17.0687 24.5021 21.8187 25.5959C21.8469 25.6021 22.0812 25.6396 22.4156 25.6396C23.1781 25.6396 24.4687 25.4396 25.1312 24.1834C25.1531 24.1428 25.1656 24.099 25.1656 24.0553L25.2312 22.8834C25.2406 22.749 25.1719 22.6334 25.0594 22.5771ZM24.55 23.9428C23.7906 25.2771 22.0062 24.9865 21.9469 24.9771C17.6937 23.999 15.5312 19.4803 15.3531 19.0896C14.9844 17.324 16.1125 16.524 16.3937 16.3553H17.1437L17.9219 18.6303C17.5656 18.9646 17.35 19.324 17.2875 19.7053C17.25 19.9303 17.2844 20.1271 17.3187 20.274C17.325 20.3053 17.3375 20.3334 17.3531 20.3584C17.6906 20.9334 18.0969 21.4615 18.5625 21.9209C18.6375 21.9959 19.3312 22.6615 20.3781 23.1646C20.7219 23.3303 20.9656 23.4115 21.2594 23.3521C21.5719 23.2928 21.7344 23.124 22.2719 22.5646L22.3594 22.474C22.4875 22.3396 22.6 22.2209 22.6937 22.1178L24.6062 23.0459L24.55 23.9428Z" fill="#212121"/>
<path d="M20 12.0771C15.3031 12.0771 11.4844 15.8959 11.4844 20.5928C11.4844 22.3521 12.0156 24.0396 13.025 25.474L12.3719 27.9146C12.3438 28.0209 12.375 28.1365 12.4531 28.2178C12.5312 28.2959 12.6469 28.3271 12.7562 28.299L15.2219 27.6396C16.6375 28.6021 18.2875 29.1115 20.0031 29.1115C24.7 29.1115 28.5187 25.2896 28.5187 20.5959C28.5156 15.8959 24.6969 12.0771 20 12.0771ZM20 28.4834C18.3625 28.4834 16.7937 27.9865 15.4562 27.0428C15.4031 27.0053 15.3406 26.9865 15.275 26.9865C15.2469 26.9865 15.2219 26.9896 15.1938 26.9959L13.1094 27.5553L13.6625 25.4959C13.6875 25.4053 13.6688 25.3084 13.6125 25.2303C12.6281 23.874 12.1094 22.2709 12.1094 20.5928C12.1094 16.2396 15.65 12.7021 20 12.7021C24.35 12.7021 27.8906 16.2396 27.8906 20.5928C27.8906 24.9428 24.35 28.4834 20 28.4834Z" fill="#212121"/>
<path d="M20 10.5801C14.4782 10.5801 9.98755 15.0707 9.98755 20.5926C9.98755 22.3051 10.4282 23.9926 11.2657 25.4832L10 30.2113C9.9688 30.3207 10 30.4363 10.0782 30.5145C10.1375 30.5738 10.2188 30.6051 10.3 30.6051C10.3282 30.6051 10.3532 30.602 10.3813 30.5957L15.1094 29.3301C16.6 30.1676 18.2875 30.6082 20 30.6082C25.5219 30.6082 30.0126 26.1176 30.0126 20.5957C30.0126 15.0738 25.5219 10.5801 20 10.5801ZM20 29.9801C18.3532 29.9801 16.7313 29.5457 15.3094 28.7207C15.2625 28.6926 15.2063 28.6801 15.1532 28.6801C15.125 28.6801 15.1 28.6832 15.0719 28.6895L10.7407 29.852L11.9 25.5238C11.9219 25.4426 11.9094 25.3582 11.8688 25.2863C11.0469 23.8613 10.6125 22.2395 10.6125 20.5926C10.6125 15.4176 14.8219 11.2051 20 11.2051C25.1782 11.2051 29.3876 15.4176 29.3876 20.5926C29.3876 25.7707 25.1782 29.9801 20 29.9801Z" fill="#212121"/>
</g>
<defs>
<clipPath id="clip0_1245_1375">
<rect width="20" height="20" fill="white" transform="translate(10 10.5928)"/>
</clipPath>
</defs>
</svg>
