<svg width="40" height="41" viewBox="0 0 40 41" fill="none" xmlns="http://www.w3.org/2000/svg">
<rect y="0.592773" width="40" height="40" rx="20" fill="#F5F5F5"/>
<g clip-path="url(#clip0_1245_1371)">
<path d="M24.5531 16.5838C24.3281 16.4025 24.025 16.3994 23.9688 16.3994C23.5469 16.4057 23.0563 16.5682 20.1781 17.765C19.225 18.1619 17.2906 18.9932 14.4313 20.24C13.8313 20.4807 13.5469 20.7244 13.5094 21.0338C13.4406 21.5932 14.0156 21.7744 14.575 21.9494L14.7875 22.0182C15.2094 22.1557 15.9813 22.3869 16.4094 22.3963C16.7938 22.3963 17.2156 22.2525 17.6594 21.9494C19.1813 20.9213 20.15 20.2744 20.7594 19.8713C20.2719 20.3369 19.7031 20.8682 19.4031 21.1463C19.1594 21.3713 18.9875 21.5338 18.95 21.5713C18.875 21.6494 18.8 21.7213 18.7281 21.7932C18.4094 22.0994 18.1125 22.3869 18.1469 22.79C18.1813 23.1744 18.5313 23.4463 18.7906 23.6182C19.1906 23.8807 19.5094 24.0994 19.8313 24.3182C20.1844 24.5588 20.5344 24.7994 20.9906 25.0963C21.1031 25.1713 21.2094 25.2463 21.3125 25.3213C21.7094 25.6025 22.1156 25.8932 22.625 25.8932C22.6656 25.8932 22.7063 25.89 22.75 25.8869C23.0813 25.8557 23.5156 25.6119 23.7031 24.6244C24.0188 22.94 24.6688 19.1275 24.8219 17.5119C24.8406 17.3307 24.8156 17.1244 24.8031 17.04C24.7906 16.9682 24.7531 16.7463 24.5531 16.5838ZM24.2031 17.4494C24.0531 19.0244 23.3938 22.8838 23.0906 24.5057C22.9906 25.0463 22.8219 25.2494 22.6969 25.2619C22.3594 25.2932 22.0594 25.0807 21.6781 24.8088C21.5688 24.7307 21.4531 24.6494 21.3344 24.5713C20.8813 24.2744 20.5344 24.0369 20.1844 23.7994C19.8625 23.5807 19.5406 23.3619 19.1375 23.0963C18.8 22.8744 18.775 22.7557 18.7719 22.7307C18.7625 22.6275 18.9844 22.4119 19.1625 22.24C19.2406 22.165 19.3219 22.0869 19.4031 22.0025C19.4375 21.9682 19.6 21.815 19.8313 21.6025C22.0375 19.5525 22.1594 19.3713 22.2 19.2057C22.225 19.0963 22.225 18.8744 22.0563 18.7275C21.9563 18.6369 21.8406 18.615 21.7469 18.615C21.6719 18.615 21.6125 18.6307 21.575 18.6369C21.4781 18.6588 21.3875 18.6807 17.3125 21.4307C16.975 21.6619 16.6781 21.7838 16.4281 21.7713C16.1781 21.765 15.6375 21.6369 14.9875 21.4244L14.7688 21.3557C14.5406 21.2838 14.2375 21.19 14.1469 21.1119C14.1875 21.0682 14.3094 20.965 14.675 20.8213L14.6844 20.8182C17.5438 19.5713 19.475 18.74 20.425 18.3463C22.9594 17.2932 23.6563 17.0338 23.9875 17.0275C24.0469 17.0182 24.1344 17.0463 24.1656 17.0713C24.175 17.0807 24.1844 17.0932 24.1938 17.1494C24.1969 17.2025 24.2125 17.3494 24.2031 17.4494Z" fill="#212121"/>
<path d="M20 10.6709C14.5281 10.6709 10.0781 15.1209 10.0781 20.5928C10.0781 26.0646 14.5281 30.5146 20 30.5146C25.4719 30.5146 29.9219 26.0646 29.9219 20.5928C29.9219 15.1209 25.4719 10.6709 20 10.6709ZM20 29.8896C14.875 29.8896 10.7031 25.7178 10.7031 20.5928C10.7031 15.4678 14.875 11.2959 20 11.2959C25.125 11.2959 29.2969 15.4678 29.2969 20.5928C29.2969 25.7178 25.125 29.8896 20 29.8896Z" fill="#212121"/>
</g>
<defs>
<clipPath id="clip0_1245_1371">
<rect width="20" height="20" fill="white" transform="translate(10 10.5928)"/>
</clipPath>
</defs>
</svg>
