<svg width="40" height="41" viewBox="0 0 40 41" fill="none" xmlns="http://www.w3.org/2000/svg">
<rect y="0.592773" width="40" height="40" rx="20" fill="#F5F5F5"/>
<path d="M29.5719 26.302C28.6688 23.0145 26.1875 21.1957 25.1625 20.5645C28.7594 17.9457 28.8281 14.9332 28.8281 14.802C28.8281 14.7176 28.7969 14.6395 28.7375 14.5801C28.6781 14.5207 28.6 14.4863 28.5156 14.4863H25.5031C25.3656 14.4863 25.2438 14.577 25.2031 14.7082C24.2219 17.8832 22.2313 18.7645 21.4219 18.9957V14.7988C21.4219 14.627 21.2813 14.4863 21.1094 14.4863H18.175C18.0031 14.4863 17.8625 14.627 17.8625 14.7988V22.3738C16.925 21.9145 14.5813 20.227 14.3156 14.7863C14.3063 14.6207 14.1688 14.4895 14.0031 14.4895H10.7281C10.5563 14.4895 10.4156 14.6301 10.4156 14.802V15.9988C10.4156 21.8988 15.2156 26.6988 21.1125 26.6988C21.2844 26.6988 21.425 26.5582 21.425 26.3863V22.6145C24.7125 23.2145 25.6281 26.3332 25.6688 26.4676C25.7063 26.602 25.8313 26.6957 25.9688 26.6957H29.2719C29.3688 26.6957 29.4625 26.6488 29.5188 26.5738C29.5813 26.4957 29.6 26.3957 29.5719 26.302ZM26.1906 26.0738C25.8813 25.2363 24.5719 22.3551 21.15 21.9426C21.0625 21.9301 20.9719 21.9582 20.9063 22.0207C20.8406 22.0801 20.8 22.1645 20.8 22.2551V26.0707C15.3906 25.902 11.0406 21.4488 11.0406 15.9957V15.1113H13.7125C14.1563 22.0957 17.9406 23.0926 18.1063 23.1332C18.2 23.1551 18.2969 23.1332 18.3719 23.0738C18.4469 23.0145 18.4906 22.9238 18.4906 22.827V15.1082H20.8V19.3801C20.8 19.4707 20.8375 19.5551 20.9063 19.6145C20.9719 19.6738 21.0625 19.702 21.15 19.6926C21.2813 19.677 24.35 19.2676 25.7344 15.1113H28.1719C28.0406 15.952 27.4125 18.3176 24.4063 20.3301C24.3125 20.3926 24.2625 20.4988 24.2688 20.6113C24.275 20.7238 24.3406 20.8207 24.4406 20.8707C24.475 20.8863 27.6813 22.5176 28.8531 26.0707H26.1906V26.0738Z" fill="#212121"/>
</svg>
