<svg width="360" height="6699" viewBox="0 0 360 6699" fill="none" xmlns="http://www.w3.org/2000/svg">
<g clip-path="url(#clip0_175_7227)">
<rect width="360" height="6699" fill="#191919"/>
<g clip-path="url(#clip1_175_7227)">
<rect width="360" height="6699" fill="white"/>
<g opacity="0.2" filter="url(#filter0_f_175_7227)">
<path d="M379.5 880C339.585 880 301.305 864.144 273.08 835.92C244.856 807.695 229 769.415 229 729.5C229 689.585 244.856 651.305 273.08 623.08C301.305 594.856 339.585 579 379.5 579L379.5 729.5L379.5 880Z" fill="url(#paint0_linear_175_7227)"/>
</g>
<g opacity="0.2" filter="url(#filter1_f_175_7227)">
<path d="M369 1354C337.439 1354 307.171 1338.14 284.854 1309.92C262.537 1281.7 250 1243.42 250 1203.5C250 1163.58 262.537 1125.3 284.854 1097.08C307.171 1068.86 337.439 1053 369 1053L369 1203.5L369 1354Z" fill="url(#paint1_linear_175_7227)"/>
</g>
<g opacity="0.2" filter="url(#filter2_f_175_7227)">
<path d="M-7 1433C24.5608 1433 54.8289 1448.86 77.1457 1477.08C99.4625 1505.3 112 1543.58 112 1583.5C112 1623.42 99.4625 1661.7 77.1457 1689.92C54.8289 1718.14 24.5608 1734 -6.99999 1734L-7.00001 1583.5L-7 1433Z" fill="url(#paint2_linear_175_7227)"/>
</g>
<circle cx="230.5" cy="552.5" r="59.2803" stroke="white" stroke-width="0.439321"/>
<g opacity="0.3" filter="url(#filter3_f_175_7227)">
<path d="M373.712 125.286C357.466 125.286 341.379 122.101 326.369 115.912C311.36 109.724 297.722 100.653 286.234 89.2183C274.746 77.7834 265.634 64.2082 259.417 49.2678C253.199 34.3274 250 18.3144 250 2.14303L373.712 2.14304L373.712 125.286Z" fill="url(#paint3_linear_175_7227)"/>
</g>
<g opacity="0.2" filter="url(#filter4_f_175_7227)">
<ellipse cx="15.5" cy="427" rx="86.5" ry="87" fill="url(#paint4_linear_175_7227)"/>
</g>
<g opacity="0.2" filter="url(#filter5_f_175_7227)">
<ellipse cx="41" cy="1100.5" rx="97" ry="97.5" fill="url(#paint5_linear_175_7227)"/>
</g>
<circle cx="15" cy="437" r="59.7803" stroke="white" stroke-width="0.439321"/>
<circle cx="22.5" cy="1068.5" r="70.2803" stroke="white" stroke-width="0.439321"/>
<circle cx="30" cy="203" r="6" fill="black"/>
<circle cx="44" cy="575" r="4" fill="black"/>
<circle cx="329.5" cy="571.5" r="4.5" fill="url(#paint6_linear_175_7227)"/>
<circle cx="325" cy="125" r="7" fill="url(#paint7_linear_175_7227)"/>
<circle cx="321.5" cy="343.5" r="3.5" fill="black"/>
<circle cx="154" cy="1030" r="4" fill="url(#paint8_linear_175_7227)"/>
<circle cx="71.5" cy="1087.5" r="3.5" fill="black"/>
<circle cx="295" cy="1125" r="2" fill="black"/>
<circle cx="321.409" cy="809.652" r="6.5" fill="url(#paint9_linear_175_7227)"/>
<circle cx="252" cy="800" r="3" fill="black"/>
<path d="M0 1862C0 1844.33 14.3269 1830 32 1830H328C345.673 1830 360 1844.33 360 1862V2758H0V1862Z" fill="white"/>
<g opacity="0.2" filter="url(#filter6_f_175_7227)">
<path d="M-33 2315C-1.43925 2315 28.8289 2330.86 51.1457 2359.08C73.4625 2387.3 86 2425.58 86 2465.5C86 2505.42 73.4625 2543.7 51.1457 2571.92C28.8289 2600.14 -1.43923 2616 -33 2616L-33 2465.5L-33 2315Z" fill="url(#paint10_linear_175_7227)"/>
</g>
<g opacity="0.2" filter="url(#filter7_f_175_7227)">
<path d="M349 2115C317.439 2115 287.171 2103.31 264.854 2082.49C242.537 2061.67 230 2033.44 230 2004C230 1974.56 242.537 1946.33 264.854 1925.51C287.171 1904.69 317.439 1893 349 1893L349 2004L349 2115Z" fill="url(#paint11_linear_175_7227)"/>
</g>
<g opacity="0.2" filter="url(#filter8_f_175_7227)">
<ellipse cx="15" cy="1982.5" rx="97" ry="97.5" fill="url(#paint12_linear_175_7227)"/>
</g>
<g opacity="0.2" filter="url(#filter9_f_175_7227)">
<ellipse cx="289" cy="2276" rx="127" ry="128" fill="url(#paint13_linear_175_7227)"/>
</g>
<circle cx="351.5" cy="2342.5" r="70.2803" stroke="white" stroke-width="0.439321"/>
<circle cx="21" cy="1941" r="10" fill="url(#paint14_linear_175_7227)"/>
<circle cx="328" cy="1919" r="5" fill="url(#paint15_linear_175_7227)"/>
<circle cx="31.5" cy="2244.5" r="5.5" fill="black"/>
<circle cx="244.5" cy="1863.5" r="3.5" fill="black"/>
<circle cx="288.5" cy="2165.5" r="6.5" fill="url(#paint16_linear_175_7227)"/>
<path d="M0 2684C0 2666.33 14.3269 2652 32 2652H328C345.673 2652 360 2666.33 360 2684V3603H0V2684Z" fill="white"/>
<g opacity="0.2" filter="url(#filter10_f_175_7227)">
<path d="M-33 3137C-1.43925 3137 28.8289 3152.86 51.1457 3181.08C73.4625 3209.3 86 3247.58 86 3287.5C86 3327.42 73.4625 3365.7 51.1457 3393.92C28.8289 3422.14 -1.43923 3438 -33 3438L-33 3287.5L-33 3137Z" fill="url(#paint17_linear_175_7227)"/>
</g>
<g opacity="0.2" filter="url(#filter11_f_175_7227)">
<path d="M367 3094C321.383 3094 277.634 3077.14 245.378 3047.14C213.121 3017.13 195 2976.43 195 2934C195 2891.57 213.121 2850.87 245.378 2820.86C277.634 2790.86 321.383 2774 367 2774L367 2934L367 3094Z" fill="url(#paint18_linear_175_7227)"/>
</g>
<g opacity="0.2" filter="url(#filter12_f_175_7227)">
<ellipse cx="17" cy="2886.5" rx="97" ry="97.5" fill="url(#paint19_linear_175_7227)"/>
</g>
<g opacity="0.2" filter="url(#filter13_f_175_7227)">
<ellipse cx="307" cy="3265" rx="127" ry="128" fill="url(#paint20_linear_175_7227)"/>
</g>
<circle cx="255.5" cy="2993.5" r="70.2803" stroke="white" stroke-width="0.439321"/>
<circle cx="47" cy="2758" r="10" fill="url(#paint21_linear_175_7227)"/>
<circle cx="301" cy="2721" r="5" fill="url(#paint22_linear_175_7227)"/>
<circle cx="325.5" cy="2991.5" r="2.5" fill="black"/>
<circle cx="227.5" cy="2689.5" r="3.5" fill="black"/>
<circle cx="81.5" cy="3082.5" r="6.5" fill="url(#paint23_linear_175_7227)"/>
<g clip-path="url(#clip2_175_7227)">
<path d="M0 3516C0 3503.85 9.84974 3494 22 3494H338C350.15 3494 360 3503.85 360 3516V6219C360 6231.15 350.15 6241 338 6241H22C9.84973 6241 0 6231.15 0 6219V3516Z" fill="white"/>
<g opacity="0.2" filter="url(#filter14_f_175_7227)">
<path d="M-23 3765C8.56075 3765 38.8289 3780.86 61.1457 3809.08C83.4625 3837.3 96 3875.58 96 3915.5C96 3955.42 83.4625 3993.7 61.1457 4021.92C38.8289 4050.14 8.56077 4066 -23 4066L-23 3915.5L-23 3765Z" fill="url(#paint24_linear_175_7227)"/>
</g>
<g opacity="0.2" filter="url(#filter15_f_175_7227)">
<path d="M357 4007C311.383 4007 267.634 3990.14 235.378 3960.14C203.121 3930.13 185 3889.43 185 3847C185 3804.57 203.121 3763.87 235.378 3733.86C267.634 3703.86 311.383 3687 357 3687L357 3847L357 4007Z" fill="url(#paint25_linear_175_7227)"/>
</g>
<g opacity="0.2" filter="url(#filter16_f_175_7227)">
<path d="M-50.1402 4182.72C-5.35577 4174.04 40.8008 4182.27 78.1757 4205.59C115.551 4228.91 141.082 4265.42 149.154 4307.08C157.226 4348.74 147.176 4392.14 121.216 4427.73C95.2565 4463.33 55.5128 4488.2 10.7284 4496.87L-19.7059 4339.8L-50.1402 4182.72Z" fill="url(#paint26_linear_175_7227)"/>
</g>
<g opacity="0.2" filter="url(#filter17_f_175_7227)">
<path d="M357.92 4851.6C321.341 4851.6 286.261 4838.08 260.396 4814.02C234.531 4789.96 220 4757.32 220 4723.3C220 4689.27 234.531 4656.64 260.396 4632.58C286.261 4608.52 321.341 4595 357.92 4595L357.92 4723.3L357.92 4851.6Z" fill="url(#paint27_linear_175_7227)"/>
</g>
<circle cx="257.5" cy="4705.5" r="70.2803" stroke="white" stroke-width="0.439321"/>
<g opacity="0.2" filter="url(#filter18_f_175_7227)">
<path d="M-2 5172C43.6172 5172 87.3661 5188.86 119.622 5218.86C151.879 5248.87 170 5289.57 170 5332C170 5374.43 151.879 5415.13 119.622 5445.14C87.3661 5475.14 43.6173 5492 -1.99997 5492L-2 5332L-2 5172Z" fill="url(#paint28_linear_175_7227)"/>
</g>
<g opacity="0.2" filter="url(#filter19_f_175_7227)">
<path d="M-10 5804C35.6172 5804 79.3661 5820.86 111.622 5850.86C143.879 5880.87 162 5921.57 162 5964C162 6006.43 143.879 6047.13 111.622 6077.14C79.3661 6107.14 35.6173 6124 -9.99997 6124L-10 5964L-10 5804Z" fill="url(#paint29_linear_175_7227)"/>
</g>
<g opacity="0.2" filter="url(#filter20_f_175_7227)">
<ellipse cx="17" cy="3728.5" rx="97" ry="97.5" fill="url(#paint30_linear_175_7227)"/>
</g>
<g opacity="0.2" filter="url(#filter21_f_175_7227)">
<ellipse cx="64" cy="4669.5" rx="97" ry="97.5" fill="url(#paint31_linear_175_7227)"/>
</g>
<g opacity="0.2" filter="url(#filter22_f_175_7227)">
<ellipse cx="298" cy="5250.5" rx="97" ry="97.5" fill="url(#paint32_linear_175_7227)"/>
</g>
<g opacity="0.2" filter="url(#filter23_f_175_7227)">
<ellipse cx="332.5" cy="5879" rx="111.5" ry="112" fill="url(#paint33_linear_175_7227)"/>
</g>
<circle cx="265.5" cy="5260.5" r="70.2803" stroke="white" stroke-width="0.439321"/>
<circle cx="52" cy="5375" r="97.7803" stroke="white" stroke-width="0.439321"/>
<g opacity="0.2" filter="url(#filter24_f_175_7227)">
<ellipse cx="338.5" cy="4363.5" rx="96.5" ry="97.5" fill="url(#paint34_linear_175_7227)"/>
</g>
<circle cx="87" cy="3979" r="124.78" stroke="white" stroke-width="0.439321"/>
<circle cx="294" cy="3531" r="10" fill="url(#paint35_linear_175_7227)"/>
<circle cx="52" cy="3723" r="6" fill="url(#paint36_linear_175_7227)"/>
<circle cx="279" cy="3759" r="5" fill="url(#paint37_linear_175_7227)"/>
<circle cx="174.5" cy="4368.5" r="5.5" transform="rotate(90 174.5 4368.5)" fill="url(#paint38_linear_175_7227)"/>
<ellipse cx="70.5" cy="4658.5" rx="6.5" ry="6.5" transform="rotate(90 70.5 4658.5)" fill="url(#paint39_linear_175_7227)"/>
<circle cx="189.5" cy="4714.5" r="8.5" transform="rotate(90 189.5 4714.5)" fill="url(#paint40_linear_175_7227)"/>
<ellipse cx="65" cy="5211" rx="6" ry="6" transform="rotate(90 65 5211)" fill="url(#paint41_linear_175_7227)"/>
<circle cx="263.5" cy="5451.5" r="4.5" transform="rotate(90 263.5 5451.5)" fill="url(#paint42_linear_175_7227)"/>
<circle cx="222.5" cy="3981.5" r="2.5" fill="black"/>
<circle cx="67.5" cy="3560.5" r="3.5" fill="black"/>
<circle cx="347.5" cy="3708.5" r="3.5" fill="black"/>
<circle cx="298.5" cy="4232.5" r="3.5" transform="rotate(90 298.5 4232.5)" fill="black"/>
<circle cx="162.5" cy="4591.5" r="3.5" transform="rotate(90 162.5 4591.5)" fill="black"/>
<ellipse cx="46" cy="5263" rx="3" ry="3" transform="rotate(90 46 5263)" fill="black"/>
<ellipse cx="30" cy="6044" rx="3" ry="3" transform="rotate(90 30 6044)" fill="black"/>
<ellipse cx="301" cy="5245" rx="3" ry="3" transform="rotate(90 301 5245)" fill="black"/>
</g>
<circle cx="36.5" cy="1455.5" r="8.5" fill="url(#paint43_linear_175_7227)"/>
<circle cx="325.5" cy="1483.5" r="3.5" fill="black"/>
</g>
</g>
<defs>
<filter id="filter0_f_175_7227" x="129" y="479" width="350.5" height="501" filterUnits="userSpaceOnUse" color-interpolation-filters="sRGB">
<feFlood flood-opacity="0" result="BackgroundImageFix"/>
<feBlend mode="normal" in="SourceGraphic" in2="BackgroundImageFix" result="shape"/>
<feGaussianBlur stdDeviation="50" result="effect1_foregroundBlur_175_7227"/>
</filter>
<filter id="filter1_f_175_7227" x="150" y="953" width="319" height="501" filterUnits="userSpaceOnUse" color-interpolation-filters="sRGB">
<feFlood flood-opacity="0" result="BackgroundImageFix"/>
<feBlend mode="normal" in="SourceGraphic" in2="BackgroundImageFix" result="shape"/>
<feGaussianBlur stdDeviation="50" result="effect1_foregroundBlur_175_7227"/>
</filter>
<filter id="filter2_f_175_7227" x="-107" y="1333" width="319" height="501" filterUnits="userSpaceOnUse" color-interpolation-filters="sRGB">
<feFlood flood-opacity="0" result="BackgroundImageFix"/>
<feBlend mode="normal" in="SourceGraphic" in2="BackgroundImageFix" result="shape"/>
<feGaussianBlur stdDeviation="50" result="effect1_foregroundBlur_175_7227"/>
</filter>
<filter id="filter3_f_175_7227" x="170.258" y="-77.598" width="283.195" height="282.625" filterUnits="userSpaceOnUse" color-interpolation-filters="sRGB">
<feFlood flood-opacity="0" result="BackgroundImageFix"/>
<feBlend mode="normal" in="SourceGraphic" in2="BackgroundImageFix" result="shape"/>
<feGaussianBlur stdDeviation="39.8706" result="effect1_foregroundBlur_175_7227"/>
</filter>
<filter id="filter4_f_175_7227" x="-171" y="240" width="373" height="374" filterUnits="userSpaceOnUse" color-interpolation-filters="sRGB">
<feFlood flood-opacity="0" result="BackgroundImageFix"/>
<feBlend mode="normal" in="SourceGraphic" in2="BackgroundImageFix" result="shape"/>
<feGaussianBlur stdDeviation="50" result="effect1_foregroundBlur_175_7227"/>
</filter>
<filter id="filter5_f_175_7227" x="-156" y="903" width="394" height="395" filterUnits="userSpaceOnUse" color-interpolation-filters="sRGB">
<feFlood flood-opacity="0" result="BackgroundImageFix"/>
<feBlend mode="normal" in="SourceGraphic" in2="BackgroundImageFix" result="shape"/>
<feGaussianBlur stdDeviation="50" result="effect1_foregroundBlur_175_7227"/>
</filter>
<filter id="filter6_f_175_7227" x="-133" y="2215" width="319" height="501" filterUnits="userSpaceOnUse" color-interpolation-filters="sRGB">
<feFlood flood-opacity="0" result="BackgroundImageFix"/>
<feBlend mode="normal" in="SourceGraphic" in2="BackgroundImageFix" result="shape"/>
<feGaussianBlur stdDeviation="50" result="effect1_foregroundBlur_175_7227"/>
</filter>
<filter id="filter7_f_175_7227" x="130" y="1793" width="319" height="422" filterUnits="userSpaceOnUse" color-interpolation-filters="sRGB">
<feFlood flood-opacity="0" result="BackgroundImageFix"/>
<feBlend mode="normal" in="SourceGraphic" in2="BackgroundImageFix" result="shape"/>
<feGaussianBlur stdDeviation="50" result="effect1_foregroundBlur_175_7227"/>
</filter>
<filter id="filter8_f_175_7227" x="-182" y="1785" width="394" height="395" filterUnits="userSpaceOnUse" color-interpolation-filters="sRGB">
<feFlood flood-opacity="0" result="BackgroundImageFix"/>
<feBlend mode="normal" in="SourceGraphic" in2="BackgroundImageFix" result="shape"/>
<feGaussianBlur stdDeviation="50" result="effect1_foregroundBlur_175_7227"/>
</filter>
<filter id="filter9_f_175_7227" x="62" y="2048" width="454" height="456" filterUnits="userSpaceOnUse" color-interpolation-filters="sRGB">
<feFlood flood-opacity="0" result="BackgroundImageFix"/>
<feBlend mode="normal" in="SourceGraphic" in2="BackgroundImageFix" result="shape"/>
<feGaussianBlur stdDeviation="50" result="effect1_foregroundBlur_175_7227"/>
</filter>
<filter id="filter10_f_175_7227" x="-133" y="3037" width="319" height="501" filterUnits="userSpaceOnUse" color-interpolation-filters="sRGB">
<feFlood flood-opacity="0" result="BackgroundImageFix"/>
<feBlend mode="normal" in="SourceGraphic" in2="BackgroundImageFix" result="shape"/>
<feGaussianBlur stdDeviation="50" result="effect1_foregroundBlur_175_7227"/>
</filter>
<filter id="filter11_f_175_7227" x="95" y="2674" width="372" height="520" filterUnits="userSpaceOnUse" color-interpolation-filters="sRGB">
<feFlood flood-opacity="0" result="BackgroundImageFix"/>
<feBlend mode="normal" in="SourceGraphic" in2="BackgroundImageFix" result="shape"/>
<feGaussianBlur stdDeviation="50" result="effect1_foregroundBlur_175_7227"/>
</filter>
<filter id="filter12_f_175_7227" x="-180" y="2689" width="394" height="395" filterUnits="userSpaceOnUse" color-interpolation-filters="sRGB">
<feFlood flood-opacity="0" result="BackgroundImageFix"/>
<feBlend mode="normal" in="SourceGraphic" in2="BackgroundImageFix" result="shape"/>
<feGaussianBlur stdDeviation="50" result="effect1_foregroundBlur_175_7227"/>
</filter>
<filter id="filter13_f_175_7227" x="80" y="3037" width="454" height="456" filterUnits="userSpaceOnUse" color-interpolation-filters="sRGB">
<feFlood flood-opacity="0" result="BackgroundImageFix"/>
<feBlend mode="normal" in="SourceGraphic" in2="BackgroundImageFix" result="shape"/>
<feGaussianBlur stdDeviation="50" result="effect1_foregroundBlur_175_7227"/>
</filter>
<filter id="filter14_f_175_7227" x="-123" y="3665" width="319" height="501" filterUnits="userSpaceOnUse" color-interpolation-filters="sRGB">
<feFlood flood-opacity="0" result="BackgroundImageFix"/>
<feBlend mode="normal" in="SourceGraphic" in2="BackgroundImageFix" result="shape"/>
<feGaussianBlur stdDeviation="50" result="effect1_foregroundBlur_175_7227"/>
</filter>
<filter id="filter15_f_175_7227" x="85" y="3587" width="372" height="520" filterUnits="userSpaceOnUse" color-interpolation-filters="sRGB">
<feFlood flood-opacity="0" result="BackgroundImageFix"/>
<feBlend mode="normal" in="SourceGraphic" in2="BackgroundImageFix" result="shape"/>
<feGaussianBlur stdDeviation="50" result="effect1_foregroundBlur_175_7227"/>
</filter>
<filter id="filter16_f_175_7227" x="-150.14" y="4079.35" width="402.016" height="517.529" filterUnits="userSpaceOnUse" color-interpolation-filters="sRGB">
<feFlood flood-opacity="0" result="BackgroundImageFix"/>
<feBlend mode="normal" in="SourceGraphic" in2="BackgroundImageFix" result="shape"/>
<feGaussianBlur stdDeviation="50" result="effect1_foregroundBlur_175_7227"/>
</filter>
<filter id="filter17_f_175_7227" x="120" y="4495" width="337.92" height="456.595" filterUnits="userSpaceOnUse" color-interpolation-filters="sRGB">
<feFlood flood-opacity="0" result="BackgroundImageFix"/>
<feBlend mode="normal" in="SourceGraphic" in2="BackgroundImageFix" result="shape"/>
<feGaussianBlur stdDeviation="50" result="effect1_foregroundBlur_175_7227"/>
</filter>
<filter id="filter18_f_175_7227" x="-102" y="5072" width="372" height="520" filterUnits="userSpaceOnUse" color-interpolation-filters="sRGB">
<feFlood flood-opacity="0" result="BackgroundImageFix"/>
<feBlend mode="normal" in="SourceGraphic" in2="BackgroundImageFix" result="shape"/>
<feGaussianBlur stdDeviation="50" result="effect1_foregroundBlur_175_7227"/>
</filter>
<filter id="filter19_f_175_7227" x="-110" y="5704" width="372" height="520" filterUnits="userSpaceOnUse" color-interpolation-filters="sRGB">
<feFlood flood-opacity="0" result="BackgroundImageFix"/>
<feBlend mode="normal" in="SourceGraphic" in2="BackgroundImageFix" result="shape"/>
<feGaussianBlur stdDeviation="50" result="effect1_foregroundBlur_175_7227"/>
</filter>
<filter id="filter20_f_175_7227" x="-180" y="3531" width="394" height="395" filterUnits="userSpaceOnUse" color-interpolation-filters="sRGB">
<feFlood flood-opacity="0" result="BackgroundImageFix"/>
<feBlend mode="normal" in="SourceGraphic" in2="BackgroundImageFix" result="shape"/>
<feGaussianBlur stdDeviation="50" result="effect1_foregroundBlur_175_7227"/>
</filter>
<filter id="filter21_f_175_7227" x="-133" y="4472" width="394" height="395" filterUnits="userSpaceOnUse" color-interpolation-filters="sRGB">
<feFlood flood-opacity="0" result="BackgroundImageFix"/>
<feBlend mode="normal" in="SourceGraphic" in2="BackgroundImageFix" result="shape"/>
<feGaussianBlur stdDeviation="50" result="effect1_foregroundBlur_175_7227"/>
</filter>
<filter id="filter22_f_175_7227" x="101" y="5053" width="394" height="395" filterUnits="userSpaceOnUse" color-interpolation-filters="sRGB">
<feFlood flood-opacity="0" result="BackgroundImageFix"/>
<feBlend mode="normal" in="SourceGraphic" in2="BackgroundImageFix" result="shape"/>
<feGaussianBlur stdDeviation="50" result="effect1_foregroundBlur_175_7227"/>
</filter>
<filter id="filter23_f_175_7227" x="121" y="5667" width="423" height="424" filterUnits="userSpaceOnUse" color-interpolation-filters="sRGB">
<feFlood flood-opacity="0" result="BackgroundImageFix"/>
<feBlend mode="normal" in="SourceGraphic" in2="BackgroundImageFix" result="shape"/>
<feGaussianBlur stdDeviation="50" result="effect1_foregroundBlur_175_7227"/>
</filter>
<filter id="filter24_f_175_7227" x="142" y="4166" width="393" height="395" filterUnits="userSpaceOnUse" color-interpolation-filters="sRGB">
<feFlood flood-opacity="0" result="BackgroundImageFix"/>
<feBlend mode="normal" in="SourceGraphic" in2="BackgroundImageFix" result="shape"/>
<feGaussianBlur stdDeviation="50" result="effect1_foregroundBlur_175_7227"/>
</filter>
<linearGradient id="paint0_linear_175_7227" x1="414.231" y1="579" x2="393.062" y2="876.933" gradientUnits="userSpaceOnUse">
<stop stop-color="#F1610C"/>
<stop offset="1" stop-color="#E11A40"/>
</linearGradient>
<linearGradient id="paint1_linear_175_7227" x1="396.462" y1="1053" x2="369.769" y2="1350.04" gradientUnits="userSpaceOnUse">
<stop stop-color="#F1610C"/>
<stop offset="1" stop-color="#E11A40"/>
</linearGradient>
<linearGradient id="paint2_linear_175_7227" x1="-34.4615" y1="1734" x2="-7.76938" y2="1436.96" gradientUnits="userSpaceOnUse">
<stop stop-color="#F1610C"/>
<stop offset="1" stop-color="#E11A40"/>
</linearGradient>
<linearGradient id="paint3_linear_175_7227" x1="402.261" y1="-121" x2="387.026" y2="129.135" gradientUnits="userSpaceOnUse">
<stop stop-color="#7C62FF"/>
<stop offset="1" stop-color="#B762FF"/>
</linearGradient>
<linearGradient id="paint4_linear_175_7227" x1="-71" y1="406.923" x2="104.705" y2="417.612" gradientUnits="userSpaceOnUse">
<stop stop-color="#7C62FF"/>
<stop offset="1" stop-color="#B762FF"/>
</linearGradient>
<linearGradient id="paint5_linear_175_7227" x1="-56" y1="1078" x2="141.033" y2="1089.99" gradientUnits="userSpaceOnUse">
<stop stop-color="#7C62FF"/>
<stop offset="1" stop-color="#B762FF"/>
</linearGradient>
<linearGradient id="paint6_linear_175_7227" x1="325" y1="570.462" x2="333.908" y2="571.094" gradientUnits="userSpaceOnUse">
<stop stop-color="#F1610C"/>
<stop offset="1" stop-color="#E11A40"/>
</linearGradient>
<linearGradient id="paint7_linear_175_7227" x1="318" y1="123.385" x2="331.857" y2="124.369" gradientUnits="userSpaceOnUse">
<stop stop-color="#F1610C"/>
<stop offset="1" stop-color="#E11A40"/>
</linearGradient>
<linearGradient id="paint8_linear_175_7227" x1="150" y1="1029.08" x2="157.918" y2="1029.64" gradientUnits="userSpaceOnUse">
<stop stop-color="#F1610C"/>
<stop offset="1" stop-color="#E11A40"/>
</linearGradient>
<linearGradient id="paint9_linear_175_7227" x1="314.909" y1="808.152" x2="327.777" y2="809.067" gradientUnits="userSpaceOnUse">
<stop stop-color="#F1610C"/>
<stop offset="1" stop-color="#E11A40"/>
</linearGradient>
<linearGradient id="paint10_linear_175_7227" x1="-60.4615" y1="2616" x2="-33.7694" y2="2318.96" gradientUnits="userSpaceOnUse">
<stop stop-color="#F1610C"/>
<stop offset="1" stop-color="#E11A40"/>
</linearGradient>
<linearGradient id="paint11_linear_175_7227" x1="376.462" y1="1893" x2="361.889" y2="2112.88" gradientUnits="userSpaceOnUse">
<stop stop-color="#F1610C"/>
<stop offset="1" stop-color="#E11A40"/>
</linearGradient>
<linearGradient id="paint12_linear_175_7227" x1="-82" y1="1960" x2="115.033" y2="1971.99" gradientUnits="userSpaceOnUse">
<stop stop-color="#7C62FF"/>
<stop offset="1" stop-color="#B762FF"/>
</linearGradient>
<linearGradient id="paint13_linear_175_7227" x1="162" y1="2246.46" x2="419.976" y2="2262.12" gradientUnits="userSpaceOnUse">
<stop stop-color="#7C62FF"/>
<stop offset="1" stop-color="#B762FF"/>
</linearGradient>
<linearGradient id="paint14_linear_175_7227" x1="11" y1="1938.69" x2="30.7962" y2="1940.1" gradientUnits="userSpaceOnUse">
<stop stop-color="#F1610C"/>
<stop offset="1" stop-color="#E11A40"/>
</linearGradient>
<linearGradient id="paint15_linear_175_7227" x1="323" y1="1917.85" x2="332.898" y2="1918.55" gradientUnits="userSpaceOnUse">
<stop stop-color="#F1610C"/>
<stop offset="1" stop-color="#E11A40"/>
</linearGradient>
<linearGradient id="paint16_linear_175_7227" x1="282" y1="2164" x2="294.868" y2="2164.91" gradientUnits="userSpaceOnUse">
<stop stop-color="#F1610C"/>
<stop offset="1" stop-color="#E11A40"/>
</linearGradient>
<linearGradient id="paint17_linear_175_7227" x1="-60.4615" y1="3438" x2="-33.7694" y2="3140.96" gradientUnits="userSpaceOnUse">
<stop stop-color="#F1610C"/>
<stop offset="1" stop-color="#E11A40"/>
</linearGradient>
<linearGradient id="paint18_linear_175_7227" x1="406.692" y1="2774" x2="385.743" y2="3090.95" gradientUnits="userSpaceOnUse">
<stop stop-color="#F1610C"/>
<stop offset="1" stop-color="#E11A40"/>
</linearGradient>
<linearGradient id="paint19_linear_175_7227" x1="-80" y1="2864" x2="117.033" y2="2875.99" gradientUnits="userSpaceOnUse">
<stop stop-color="#7C62FF"/>
<stop offset="1" stop-color="#B762FF"/>
</linearGradient>
<linearGradient id="paint20_linear_175_7227" x1="180" y1="3235.46" x2="437.976" y2="3251.12" gradientUnits="userSpaceOnUse">
<stop stop-color="#7C62FF"/>
<stop offset="1" stop-color="#B762FF"/>
</linearGradient>
<linearGradient id="paint21_linear_175_7227" x1="37" y1="2755.69" x2="56.7962" y2="2757.1" gradientUnits="userSpaceOnUse">
<stop stop-color="#F1610C"/>
<stop offset="1" stop-color="#E11A40"/>
</linearGradient>
<linearGradient id="paint22_linear_175_7227" x1="296" y1="2719.85" x2="305.898" y2="2720.55" gradientUnits="userSpaceOnUse">
<stop stop-color="#F1610C"/>
<stop offset="1" stop-color="#E11A40"/>
</linearGradient>
<linearGradient id="paint23_linear_175_7227" x1="75" y1="3081" x2="87.8675" y2="3081.91" gradientUnits="userSpaceOnUse">
<stop stop-color="#F1610C"/>
<stop offset="1" stop-color="#E11A40"/>
</linearGradient>
<linearGradient id="paint24_linear_175_7227" x1="-50.4615" y1="4066" x2="-23.7694" y2="3768.96" gradientUnits="userSpaceOnUse">
<stop stop-color="#F1610C"/>
<stop offset="1" stop-color="#E11A40"/>
</linearGradient>
<linearGradient id="paint25_linear_175_7227" x1="396.692" y1="3687" x2="375.743" y2="4003.95" gradientUnits="userSpaceOnUse">
<stop stop-color="#F1610C"/>
<stop offset="1" stop-color="#E11A40"/>
</linearGradient>
<linearGradient id="paint26_linear_175_7227" x1="-28.2392" y1="4504.42" x2="-67.9616" y2="4189.27" gradientUnits="userSpaceOnUse">
<stop stop-color="#F1610C"/>
<stop offset="1" stop-color="#E11A40"/>
</linearGradient>
<linearGradient id="paint27_linear_175_7227" x1="389.748" y1="4595" x2="372.949" y2="4849.15" gradientUnits="userSpaceOnUse">
<stop stop-color="#F1610C"/>
<stop offset="1" stop-color="#E11A40"/>
</linearGradient>
<linearGradient id="paint28_linear_175_7227" x1="-41.6923" y1="5492" x2="-20.743" y2="5175.05" gradientUnits="userSpaceOnUse">
<stop stop-color="#F1610C"/>
<stop offset="1" stop-color="#E11A40"/>
</linearGradient>
<linearGradient id="paint29_linear_175_7227" x1="-49.6923" y1="6124" x2="-28.743" y2="5807.05" gradientUnits="userSpaceOnUse">
<stop stop-color="#F1610C"/>
<stop offset="1" stop-color="#E11A40"/>
</linearGradient>
<linearGradient id="paint30_linear_175_7227" x1="-80" y1="3706" x2="117.033" y2="3717.99" gradientUnits="userSpaceOnUse">
<stop stop-color="#7C62FF"/>
<stop offset="1" stop-color="#B762FF"/>
</linearGradient>
<linearGradient id="paint31_linear_175_7227" x1="-33" y1="4647" x2="164.033" y2="4658.99" gradientUnits="userSpaceOnUse">
<stop stop-color="#7C62FF"/>
<stop offset="1" stop-color="#B762FF"/>
</linearGradient>
<linearGradient id="paint32_linear_175_7227" x1="201" y1="5228" x2="398.033" y2="5239.99" gradientUnits="userSpaceOnUse">
<stop stop-color="#7C62FF"/>
<stop offset="1" stop-color="#B762FF"/>
</linearGradient>
<linearGradient id="paint33_linear_175_7227" x1="221" y1="5853.15" x2="447.485" y2="5866.95" gradientUnits="userSpaceOnUse">
<stop stop-color="#7C62FF"/>
<stop offset="1" stop-color="#B762FF"/>
</linearGradient>
<linearGradient id="paint34_linear_175_7227" x1="242" y1="4341" x2="438.025" y2="4352.87" gradientUnits="userSpaceOnUse">
<stop stop-color="#7C62FF"/>
<stop offset="1" stop-color="#B762FF"/>
</linearGradient>
<linearGradient id="paint35_linear_175_7227" x1="284" y1="3528.69" x2="303.796" y2="3530.1" gradientUnits="userSpaceOnUse">
<stop stop-color="#F1610C"/>
<stop offset="1" stop-color="#E11A40"/>
</linearGradient>
<linearGradient id="paint36_linear_175_7227" x1="46" y1="3721.62" x2="57.8777" y2="3722.46" gradientUnits="userSpaceOnUse">
<stop stop-color="#F1610C"/>
<stop offset="1" stop-color="#E11A40"/>
</linearGradient>
<linearGradient id="paint37_linear_175_7227" x1="274" y1="3757.85" x2="283.898" y2="3758.55" gradientUnits="userSpaceOnUse">
<stop stop-color="#F1610C"/>
<stop offset="1" stop-color="#E11A40"/>
</linearGradient>
<linearGradient id="paint38_linear_175_7227" x1="169" y1="4367.23" x2="179.888" y2="4368" gradientUnits="userSpaceOnUse">
<stop stop-color="#F1610C"/>
<stop offset="1" stop-color="#E11A40"/>
</linearGradient>
<linearGradient id="paint39_linear_175_7227" x1="64" y1="4657" x2="76.8675" y2="4657.91" gradientUnits="userSpaceOnUse">
<stop stop-color="#F1610C"/>
<stop offset="1" stop-color="#E11A40"/>
</linearGradient>
<linearGradient id="paint40_linear_175_7227" x1="181" y1="4712.54" x2="197.827" y2="4713.73" gradientUnits="userSpaceOnUse">
<stop stop-color="#F1610C"/>
<stop offset="1" stop-color="#E11A40"/>
</linearGradient>
<linearGradient id="paint41_linear_175_7227" x1="59" y1="5209.62" x2="70.8777" y2="5210.46" gradientUnits="userSpaceOnUse">
<stop stop-color="#F1610C"/>
<stop offset="1" stop-color="#E11A40"/>
</linearGradient>
<linearGradient id="paint42_linear_175_7227" x1="259" y1="5450.46" x2="267.908" y2="5451.09" gradientUnits="userSpaceOnUse">
<stop stop-color="#F1610C"/>
<stop offset="1" stop-color="#E11A40"/>
</linearGradient>
<linearGradient id="paint43_linear_175_7227" x1="28" y1="1453.54" x2="44.8268" y2="1454.73" gradientUnits="userSpaceOnUse">
<stop stop-color="#F1610C"/>
<stop offset="1" stop-color="#E11A40"/>
</linearGradient>
<clipPath id="clip0_175_7227">
<rect width="360" height="6699" fill="white"/>
</clipPath>
<clipPath id="clip1_175_7227">
<rect width="360" height="6699" fill="white"/>
</clipPath>
<clipPath id="clip2_175_7227">
<path d="M0 3516C0 3503.85 9.84974 3494 22 3494H338C350.15 3494 360 3503.85 360 3516V6219C360 6231.15 350.15 6241 338 6241H22C9.84973 6241 0 6231.15 0 6219V3516Z" fill="white"/>
</clipPath>
</defs>
</svg>
