<svg width="1660" height="10007" viewBox="0 0 1660 10007" fill="none" xmlns="http://www.w3.org/2000/svg">
<g clip-path="url(#clip0_174_7223)">
<rect width="1660" height="10007" fill="white"/>
<rect width="1660" height="10649" rx="80" fill="white"/>
<g opacity="0.2" filter="url(#filter0_f_174_7223)">
<ellipse cx="1319" cy="5872.5" rx="404" ry="405.5" fill="url(#paint0_linear_174_7223)"/>
</g>
<g opacity="0.2" filter="url(#filter1_f_174_7223)">
<ellipse cx="387" cy="6612.5" rx="404" ry="405.5" fill="url(#paint1_linear_174_7223)"/>
</g>
<g opacity="0.2" filter="url(#filter2_f_174_7223)">
<ellipse cx="1273" cy="7164.5" rx="404" ry="405.5" fill="url(#paint2_linear_174_7223)"/>
</g>
<g opacity="0.2" filter="url(#filter3_f_174_7223)">
<ellipse cx="625" cy="8201" rx="443" ry="445" fill="url(#paint3_linear_174_7223)"/>
</g>
<g opacity="0.2" filter="url(#filter4_f_174_7223)">
<path d="M1660 5618C1514.66 5618 1375.27 5551.63 1272.5 5433.48C1169.73 5315.33 1112 5155.09 1112 4988C1112 4820.91 1169.73 4660.67 1272.5 4542.52C1375.27 4424.37 1514.66 4358 1660 4358L1660 4988L1660 5618Z" fill="url(#paint4_linear_174_7223)"/>
</g>
<g opacity="0.2" filter="url(#filter5_f_174_7223)">
<path d="M-0.500493 3863C198.81 3863 389.957 3941.81 530.89 4082.08C671.824 4222.36 751 4412.62 751 4611C751 4809.38 671.824 4999.64 530.89 5139.92C389.957 5280.19 198.81 5359 -0.500314 5359L-0.50046 4611L-0.500493 3863Z" fill="url(#paint5_linear_174_7223)"/>
</g>
<g opacity="0.2" filter="url(#filter6_f_174_7223)">
<path d="M1660.5 2759C1498.58 2759 1343.3 2694.68 1228.81 2580.19C1114.32 2465.7 1050 2310.41 1050 2148.5C1050 1986.59 1114.32 1831.3 1228.81 1716.81C1343.3 1602.32 1498.58 1538 1660.5 1538L1660.5 2148.5L1660.5 2759Z" fill="url(#paint6_linear_174_7223)"/>
</g>
<g opacity="0.2" filter="url(#filter7_f_174_7223)">
<path d="M-93.0005 2649C13.8818 2649 116.386 2691.46 191.964 2767.04C267.541 2842.61 310 2945.12 310 3052C310 3158.88 267.541 3261.39 191.964 3336.96C116.386 3412.54 13.8818 3455 -93.0004 3455L-93.0005 3052L-93.0005 2649Z" fill="url(#paint7_linear_174_7223)"/>
</g>
<g opacity="0.3" filter="url(#filter8_f_174_7223)">
<path d="M1660 523C1588.69 523 1518.08 509.02 1452.2 481.857C1386.32 454.694 1326.46 414.881 1276.04 364.691C1225.62 314.501 1185.62 254.917 1158.33 189.34C1131.04 123.764 1117 53.4794 1117 -17.5001L1660 -17.5L1660 523Z" fill="url(#paint8_linear_174_7223)"/>
</g>
<g opacity="0.2" filter="url(#filter9_f_174_7223)">
<ellipse cx="414" cy="1506" rx="442" ry="444" fill="url(#paint9_linear_174_7223)"/>
</g>
<g opacity="0.2" filter="url(#filter10_f_174_7223)">
<ellipse cx="1296" cy="3392" rx="442" ry="444" fill="url(#paint10_linear_174_7223)"/>
</g>
<g opacity="0.2" filter="url(#filter11_f_174_7223)">
<path d="M1664 6982C1552.87 6982 1446.3 6931.27 1367.72 6840.97C1289.14 6750.67 1245 6628.2 1245 6500.5C1245 6372.8 1289.14 6250.33 1367.72 6160.03C1446.3 6069.73 1552.87 6019 1664 6019L1664 6500.5L1664 6982Z" fill="url(#paint11_linear_174_7223)"/>
</g>
<g opacity="0.2" filter="url(#filter12_f_174_7223)">
<path d="M-10.0005 6930C101.125 6930 207.699 6980.73 286.277 7071.03C364.855 7161.33 408.999 7283.8 408.999 7411.5C408.999 7539.2 364.855 7661.67 286.277 7751.97C207.7 7842.27 101.125 7893 -10.0005 7893L-10.0005 7411.5L-10.0005 6930Z" fill="url(#paint12_linear_174_7223)"/>
</g>
<g opacity="0.2" filter="url(#filter13_f_174_7223)">
<ellipse cx="1346" cy="8480" rx="420" ry="419" transform="rotate(-180 1346 8480)" fill="url(#paint13_linear_174_7223)"/>
</g>
<g opacity="0.2" filter="url(#filter14_f_174_7223)">
<ellipse cx="1319" cy="10139.5" rx="404" ry="405.5" fill="url(#paint14_linear_174_7223)"/>
</g>
<g opacity="0.2" filter="url(#filter15_f_174_7223)">
<path d="M17.4995 9078C125.045 9078 228.185 9120.56 304.231 9196.33C380.277 9272.09 422.999 9374.85 422.999 9482C423 9589.15 380.277 9691.91 304.231 9767.67C228.185 9843.44 125.045 9886 17.4996 9886L17.4995 9482L17.4995 9078Z" fill="url(#paint15_linear_174_7223)"/>
</g>
<g opacity="0.2" filter="url(#filter16_f_174_7223)">
<path d="M1660 9894C1514.66 9894 1375.28 9827.63 1272.51 9709.48C1169.74 9591.33 1112 9431.09 1112 9264C1112 9096.91 1169.74 8936.67 1272.51 8818.52C1375.28 8700.37 1514.66 8634 1660 8634L1660 9264L1660 9894Z" fill="url(#paint16_linear_174_7223)"/>
</g>
<g opacity="0.2" filter="url(#filter17_f_174_7223)">
<path d="M16.9995 10154C120.964 10154 220.671 10201.5 294.185 10285.9C367.7 10370.4 409 10485 409 10604.5C409 10724 367.7 10838.6 294.185 10923.1C220.671 11007.5 120.964 11055 16.9996 11055L16.9995 10604.5L16.9995 10154Z" fill="url(#paint17_linear_174_7223)"/>
</g>
<circle cx="1334" cy="4681" r="306.5" stroke="white"/>
<circle cx="314" cy="4074" r="306.5" stroke="white"/>
<circle cx="1063.5" cy="1915.5" r="241" stroke="white"/>
<path d="M0.499979 2889.5C32.1486 2889.5 63.4872 2895.73 92.7267 2907.85C121.966 2919.96 148.534 2937.71 170.913 2960.09C193.292 2982.47 211.044 3009.03 223.155 3038.27C235.266 3067.51 241.5 3098.85 241.5 3130.5C241.5 3162.15 235.266 3193.49 223.155 3222.73C211.044 3251.97 193.292 3278.53 170.913 3300.91C148.534 3323.29 121.966 3341.04 92.7267 3353.15C63.4872 3365.27 32.1486 3371.5 0.499979 3371.5" stroke="white"/>
<path d="M0.999987 2980.5C20.7642 2980.5 40.3348 2984.38 58.5944 2991.92C76.854 2999.46 93.445 3010.51 107.42 3024.43C121.395 3038.36 132.481 3054.9 140.044 3073.1C147.607 3091.3 151.5 3110.8 151.5 3130.5C151.5 3150.2 147.607 3169.7 140.044 3187.9C132.481 3206.1 121.395 3222.64 107.42 3236.57C93.445 3250.49 76.854 3261.54 58.5944 3269.08C40.3348 3276.62 20.7642 3280.5 0.999987 3280.5" stroke="white"/>
<circle cx="550.5" cy="1205.5" r="9.5" fill="url(#paint18_linear_174_7223)"/>
<path d="M1659.5 3710.5C1616.3 3710.5 1573.51 3701.99 1533.6 3685.46C1493.68 3668.92 1457.41 3644.69 1426.86 3614.14C1396.31 3583.59 1372.08 3547.32 1355.54 3507.4C1339.01 3467.49 1330.5 3424.7 1330.5 3381.5C1330.5 3338.3 1339.01 3295.51 1355.54 3255.6C1372.08 3215.68 1396.31 3179.41 1426.86 3148.86C1457.41 3118.31 1493.68 3094.08 1533.6 3077.54C1573.51 3061.01 1616.3 3052.5 1659.5 3052.5" stroke="white"/>
<path d="M1658.07 3620.78C1615.04 3597.14 1579.18 3562.34 1554.27 3520.04C1529.35 3477.74 1516.31 3429.5 1516.5 3380.41C1516.7 3331.32 1530.13 3283.19 1555.38 3241.08C1580.63 3198.98 1616.77 3164.47 1659.98 3141.18" stroke="white"/>
<circle cx="411" cy="1556" r="306.5" stroke="white"/>
<circle cx="411" cy="1556" r="209.5" stroke="white"/>
<circle cx="411" cy="1556" r="108.5" stroke="white"/>
<circle cx="1527.5" cy="2271.5" r="132" stroke="white"/>
<circle cx="103.5" cy="2495.5" r="9.5" fill="url(#paint19_linear_174_7223)"/>
<circle cx="808.5" cy="1514.5" r="13.5" fill="black"/>
<circle cx="234.5" cy="7483.5" r="207" stroke="white"/>
<circle cx="1484" cy="6551" r="135.5" stroke="white"/>
<circle cx="830.5" cy="6886.5" r="376" stroke="white"/>
<circle cx="1316" cy="8106" r="263.5" stroke="white"/>
<circle cx="1130.5" cy="9809.5" r="9.5" fill="url(#paint20_linear_174_7223)"/>
<circle cx="1175.5" cy="7438.5" r="27.5" fill="url(#paint21_linear_174_7223)"/>
<circle cx="951.5" cy="8054.5" r="20.5" fill="url(#paint22_linear_174_7223)"/>
<circle cx="1575.5" cy="952.5" r="27.5" fill="url(#paint23_linear_174_7223)"/>
<circle cx="1470.5" cy="1151.5" r="9.5" fill="url(#paint24_linear_174_7223)"/>
<circle cx="127.5" cy="3324.5" r="24.5" fill="url(#paint25_linear_174_7223)"/>
<circle cx="316" cy="3257" r="6" fill="url(#paint26_linear_174_7223)"/>
<circle cx="701.5" cy="549.5" r="9.5" fill="url(#paint27_linear_174_7223)"/>
<circle cx="602.5" cy="1885.5" r="9.5" fill="url(#paint28_linear_174_7223)"/>
<circle cx="458" cy="2715" r="9" fill="black"/>
<circle cx="1223.5" cy="973.5" r="13.5" fill="black"/>
<circle cx="1267.5" cy="2020.5" r="27.5" fill="url(#paint29_linear_174_7223)"/>
<circle cx="1541.5" cy="2603.5" r="13.5" fill="black"/>
<circle cx="1368" cy="3928" r="21" fill="url(#paint30_linear_174_7223)"/>
<circle cx="1483.5" cy="4413.5" r="9.5" fill="url(#paint31_linear_174_7223)"/>
<circle cx="149.5" cy="3955.5" r="13.5" fill="black"/>
<circle cx="225" cy="4511" r="5" fill="black"/>
<circle cx="468.5" cy="4073.5" r="9.5" fill="url(#paint32_linear_174_7223)"/>
<circle cx="1313.5" cy="6299.5" r="27.5" fill="url(#paint33_linear_174_7223)"/>
<circle cx="1456.5" cy="7202.5" r="9.5" fill="url(#paint34_linear_174_7223)"/>
<circle cx="143.5" cy="6387.5" r="13.5" fill="black"/>
<circle cx="243" cy="7159" r="5" fill="black"/>
<circle cx="411.5" cy="6611.5" r="9.5" fill="url(#paint35_linear_174_7223)"/>
<circle cx="1476.5" cy="8832.5" r="23.5" fill="url(#paint36_linear_174_7223)"/>
<circle cx="94.5" cy="9428.5" r="9.5" fill="url(#paint37_linear_174_7223)"/>
<circle cx="1557" cy="9569" r="5" fill="black"/>
<circle cx="1585" cy="8494" r="5" fill="black"/>
<circle cx="124.5" cy="7506.5" r="15.5" fill="black"/>
<circle cx="634.5" cy="7951.5" r="9.5" fill="black"/>
<circle cx="1564.5" cy="7579.5" r="9.5" fill="url(#paint38_linear_174_7223)"/>
</g>
<defs>
<filter id="filter0_f_174_7223" x="564.999" y="5117" width="1508" height="1511" filterUnits="userSpaceOnUse" color-interpolation-filters="sRGB">
<feFlood flood-opacity="0" result="BackgroundImageFix"/>
<feBlend mode="normal" in="SourceGraphic" in2="BackgroundImageFix" result="shape"/>
<feGaussianBlur stdDeviation="175" result="effect1_foregroundBlur_174_7223"/>
</filter>
<filter id="filter1_f_174_7223" x="-367" y="5857" width="1508" height="1511" filterUnits="userSpaceOnUse" color-interpolation-filters="sRGB">
<feFlood flood-opacity="0" result="BackgroundImageFix"/>
<feBlend mode="normal" in="SourceGraphic" in2="BackgroundImageFix" result="shape"/>
<feGaussianBlur stdDeviation="175" result="effect1_foregroundBlur_174_7223"/>
</filter>
<filter id="filter2_f_174_7223" x="518.999" y="6409" width="1508" height="1511" filterUnits="userSpaceOnUse" color-interpolation-filters="sRGB">
<feFlood flood-opacity="0" result="BackgroundImageFix"/>
<feBlend mode="normal" in="SourceGraphic" in2="BackgroundImageFix" result="shape"/>
<feGaussianBlur stdDeviation="175" result="effect1_foregroundBlur_174_7223"/>
</filter>
<filter id="filter3_f_174_7223" x="-168" y="7406" width="1586" height="1590" filterUnits="userSpaceOnUse" color-interpolation-filters="sRGB">
<feFlood flood-opacity="0" result="BackgroundImageFix"/>
<feBlend mode="normal" in="SourceGraphic" in2="BackgroundImageFix" result="shape"/>
<feGaussianBlur stdDeviation="175" result="effect1_foregroundBlur_174_7223"/>
</filter>
<filter id="filter4_f_174_7223" x="761.999" y="4008" width="1248" height="1960" filterUnits="userSpaceOnUse" color-interpolation-filters="sRGB">
<feFlood flood-opacity="0" result="BackgroundImageFix"/>
<feBlend mode="normal" in="SourceGraphic" in2="BackgroundImageFix" result="shape"/>
<feGaussianBlur stdDeviation="175" result="effect1_foregroundBlur_174_7223"/>
</filter>
<filter id="filter5_f_174_7223" x="-350.5" y="3513" width="1451.5" height="2196" filterUnits="userSpaceOnUse" color-interpolation-filters="sRGB">
<feFlood flood-opacity="0" result="BackgroundImageFix"/>
<feBlend mode="normal" in="SourceGraphic" in2="BackgroundImageFix" result="shape"/>
<feGaussianBlur stdDeviation="175" result="effect1_foregroundBlur_174_7223"/>
</filter>
<filter id="filter6_f_174_7223" x="699.999" y="1188" width="1310.5" height="1921" filterUnits="userSpaceOnUse" color-interpolation-filters="sRGB">
<feFlood flood-opacity="0" result="BackgroundImageFix"/>
<feBlend mode="normal" in="SourceGraphic" in2="BackgroundImageFix" result="shape"/>
<feGaussianBlur stdDeviation="175" result="effect1_foregroundBlur_174_7223"/>
</filter>
<filter id="filter7_f_174_7223" x="-443" y="2299" width="1103" height="1506" filterUnits="userSpaceOnUse" color-interpolation-filters="sRGB">
<feFlood flood-opacity="0" result="BackgroundImageFix"/>
<feBlend mode="normal" in="SourceGraphic" in2="BackgroundImageFix" result="shape"/>
<feGaussianBlur stdDeviation="175" result="effect1_foregroundBlur_174_7223"/>
</filter>
<filter id="filter8_f_174_7223" x="766.999" y="-367.5" width="1243" height="1240.5" filterUnits="userSpaceOnUse" color-interpolation-filters="sRGB">
<feFlood flood-opacity="0" result="BackgroundImageFix"/>
<feBlend mode="normal" in="SourceGraphic" in2="BackgroundImageFix" result="shape"/>
<feGaussianBlur stdDeviation="175" result="effect1_foregroundBlur_174_7223"/>
</filter>
<filter id="filter9_f_174_7223" x="-378" y="712" width="1584" height="1588" filterUnits="userSpaceOnUse" color-interpolation-filters="sRGB">
<feFlood flood-opacity="0" result="BackgroundImageFix"/>
<feBlend mode="normal" in="SourceGraphic" in2="BackgroundImageFix" result="shape"/>
<feGaussianBlur stdDeviation="175" result="effect1_foregroundBlur_174_7223"/>
</filter>
<filter id="filter10_f_174_7223" x="503.999" y="2598" width="1584" height="1588" filterUnits="userSpaceOnUse" color-interpolation-filters="sRGB">
<feFlood flood-opacity="0" result="BackgroundImageFix"/>
<feBlend mode="normal" in="SourceGraphic" in2="BackgroundImageFix" result="shape"/>
<feGaussianBlur stdDeviation="175" result="effect1_foregroundBlur_174_7223"/>
</filter>
<filter id="filter11_f_174_7223" x="894.999" y="5669" width="1119" height="1663" filterUnits="userSpaceOnUse" color-interpolation-filters="sRGB">
<feFlood flood-opacity="0" result="BackgroundImageFix"/>
<feBlend mode="normal" in="SourceGraphic" in2="BackgroundImageFix" result="shape"/>
<feGaussianBlur stdDeviation="175" result="effect1_foregroundBlur_174_7223"/>
</filter>
<filter id="filter12_f_174_7223" x="-360" y="6580" width="1119" height="1663" filterUnits="userSpaceOnUse" color-interpolation-filters="sRGB">
<feFlood flood-opacity="0" result="BackgroundImageFix"/>
<feBlend mode="normal" in="SourceGraphic" in2="BackgroundImageFix" result="shape"/>
<feGaussianBlur stdDeviation="175" result="effect1_foregroundBlur_174_7223"/>
</filter>
<filter id="filter13_f_174_7223" x="575.999" y="7711" width="1540" height="1538" filterUnits="userSpaceOnUse" color-interpolation-filters="sRGB">
<feFlood flood-opacity="0" result="BackgroundImageFix"/>
<feBlend mode="normal" in="SourceGraphic" in2="BackgroundImageFix" result="shape"/>
<feGaussianBlur stdDeviation="175" result="effect1_foregroundBlur_174_7223"/>
</filter>
<filter id="filter14_f_174_7223" x="565" y="9384" width="1508" height="1511" filterUnits="userSpaceOnUse" color-interpolation-filters="sRGB">
<feFlood flood-opacity="0" result="BackgroundImageFix"/>
<feBlend mode="normal" in="SourceGraphic" in2="BackgroundImageFix" result="shape"/>
<feGaussianBlur stdDeviation="175" result="effect1_foregroundBlur_174_7223"/>
</filter>
<filter id="filter15_f_174_7223" x="-332.5" y="8728" width="1105.5" height="1508" filterUnits="userSpaceOnUse" color-interpolation-filters="sRGB">
<feFlood flood-opacity="0" result="BackgroundImageFix"/>
<feBlend mode="normal" in="SourceGraphic" in2="BackgroundImageFix" result="shape"/>
<feGaussianBlur stdDeviation="175" result="effect1_foregroundBlur_174_7223"/>
</filter>
<filter id="filter16_f_174_7223" x="762" y="8284" width="1248" height="1960" filterUnits="userSpaceOnUse" color-interpolation-filters="sRGB">
<feFlood flood-opacity="0" result="BackgroundImageFix"/>
<feBlend mode="normal" in="SourceGraphic" in2="BackgroundImageFix" result="shape"/>
<feGaussianBlur stdDeviation="175" result="effect1_foregroundBlur_174_7223"/>
</filter>
<filter id="filter17_f_174_7223" x="-183" y="9954" width="792" height="1301" filterUnits="userSpaceOnUse" color-interpolation-filters="sRGB">
<feFlood flood-opacity="0" result="BackgroundImageFix"/>
<feBlend mode="normal" in="SourceGraphic" in2="BackgroundImageFix" result="shape"/>
<feGaussianBlur stdDeviation="100" result="effect1_foregroundBlur_174_7223"/>
</filter>
<linearGradient id="paint0_linear_174_7223" x1="914.999" y1="5778.92" x2="1735.62" y2="5828.95" gradientUnits="userSpaceOnUse">
<stop stop-color="#7C62FF"/>
<stop offset="1" stop-color="#B762FF"/>
</linearGradient>
<linearGradient id="paint1_linear_174_7223" x1="-17" y1="6518.92" x2="803.623" y2="6568.95" gradientUnits="userSpaceOnUse">
<stop stop-color="#7C62FF"/>
<stop offset="1" stop-color="#B762FF"/>
</linearGradient>
<linearGradient id="paint2_linear_174_7223" x1="868.999" y1="7070.92" x2="1689.62" y2="7120.95" gradientUnits="userSpaceOnUse">
<stop stop-color="#7C62FF"/>
<stop offset="1" stop-color="#B762FF"/>
</linearGradient>
<linearGradient id="paint3_linear_174_7223" x1="182" y1="8098.31" x2="1081.85" y2="8153.12" gradientUnits="userSpaceOnUse">
<stop stop-color="#7C62FF"/>
<stop offset="1" stop-color="#B762FF"/>
</linearGradient>
<linearGradient id="paint4_linear_174_7223" x1="1786.46" y1="4358" x2="1684.75" y2="5603.15" gradientUnits="userSpaceOnUse">
<stop stop-color="#F1610C"/>
<stop offset="1" stop-color="#E11A40"/>
</linearGradient>
<linearGradient id="paint5_linear_174_7223" x1="-173.924" y1="5359" x2="-81.388" y2="3839.62" gradientUnits="userSpaceOnUse">
<stop stop-color="#7C62FF"/>
<stop offset="1" stop-color="#B762FF"/>
</linearGradient>
<linearGradient id="paint6_linear_174_7223" x1="1801.38" y1="1538" x2="1715.51" y2="2746.56" gradientUnits="userSpaceOnUse">
<stop stop-color="#F1610C"/>
<stop offset="1" stop-color="#E11A40"/>
</linearGradient>
<linearGradient id="paint7_linear_174_7223" x1="-186" y1="3455" x2="-129.315" y2="2657.21" gradientUnits="userSpaceOnUse">
<stop stop-color="#F1610C"/>
<stop offset="1" stop-color="#E11A40"/>
</linearGradient>
<linearGradient id="paint8_linear_174_7223" x1="1785.31" y1="-558" x2="1718.44" y2="539.895" gradientUnits="userSpaceOnUse">
<stop stop-color="#7C62FF"/>
<stop offset="1" stop-color="#B762FF"/>
</linearGradient>
<linearGradient id="paint9_linear_174_7223" x1="-28" y1="1403.54" x2="869.815" y2="1458.23" gradientUnits="userSpaceOnUse">
<stop stop-color="#7C62FF"/>
<stop offset="1" stop-color="#B762FF"/>
</linearGradient>
<linearGradient id="paint10_linear_174_7223" x1="853.999" y1="3289.54" x2="1751.81" y2="3344.23" gradientUnits="userSpaceOnUse">
<stop stop-color="#7C62FF"/>
<stop offset="1" stop-color="#B762FF"/>
</linearGradient>
<linearGradient id="paint11_linear_174_7223" x1="1760.69" y1="6019" x2="1682.99" y2="6970.66" gradientUnits="userSpaceOnUse">
<stop stop-color="#F1610C"/>
<stop offset="1" stop-color="#E11A40"/>
</linearGradient>
<linearGradient id="paint12_linear_174_7223" x1="-106.693" y1="7893" x2="-28.9888" y2="6941.34" gradientUnits="userSpaceOnUse">
<stop stop-color="#F1610C"/>
<stop offset="1" stop-color="#E11A40"/>
</linearGradient>
<linearGradient id="paint13_linear_174_7223" x1="925.999" y1="8383.31" x2="1757.42" y2="8442.52" gradientUnits="userSpaceOnUse">
<stop stop-color="#F1610C"/>
<stop offset="1" stop-color="#E11A40"/>
</linearGradient>
<linearGradient id="paint14_linear_174_7223" x1="915" y1="10045.9" x2="1735.62" y2="10095.9" gradientUnits="userSpaceOnUse">
<stop stop-color="#7C62FF"/>
<stop offset="1" stop-color="#B762FF"/>
</linearGradient>
<linearGradient id="paint15_linear_174_7223" x1="-76.0775" y1="9886" x2="-26.0506" y2="9065.38" gradientUnits="userSpaceOnUse">
<stop stop-color="#7C62FF"/>
<stop offset="1" stop-color="#B762FF"/>
</linearGradient>
<linearGradient id="paint16_linear_174_7223" x1="1786.46" y1="8634" x2="1684.75" y2="9879.15" gradientUnits="userSpaceOnUse">
<stop stop-color="#F1610C"/>
<stop offset="1" stop-color="#E11A40"/>
</linearGradient>
<linearGradient id="paint17_linear_174_7223" x1="-73.462" y1="11055" x2="-0.756426" y2="10164.6" gradientUnits="userSpaceOnUse">
<stop stop-color="#F1610C"/>
<stop offset="1" stop-color="#E11A40"/>
</linearGradient>
<linearGradient id="paint18_linear_174_7223" x1="541" y1="1203.31" x2="559.806" y2="1204.64" gradientUnits="userSpaceOnUse">
<stop stop-color="#F1610C"/>
<stop offset="1" stop-color="#E11A40"/>
</linearGradient>
<linearGradient id="paint19_linear_174_7223" x1="94" y1="2493.31" x2="112.806" y2="2494.64" gradientUnits="userSpaceOnUse">
<stop stop-color="#F1610C"/>
<stop offset="1" stop-color="#E11A40"/>
</linearGradient>
<linearGradient id="paint20_linear_174_7223" x1="1121" y1="9807.31" x2="1139.81" y2="9808.64" gradientUnits="userSpaceOnUse">
<stop stop-color="#F1610C"/>
<stop offset="1" stop-color="#E11A40"/>
</linearGradient>
<linearGradient id="paint21_linear_174_7223" x1="1148" y1="7432.15" x2="1202.44" y2="7436.02" gradientUnits="userSpaceOnUse">
<stop stop-color="#F1610C"/>
<stop offset="1" stop-color="#E11A40"/>
</linearGradient>
<linearGradient id="paint22_linear_174_7223" x1="931" y1="8049.77" x2="971.582" y2="8052.65" gradientUnits="userSpaceOnUse">
<stop stop-color="#F1610C"/>
<stop offset="1" stop-color="#E11A40"/>
</linearGradient>
<linearGradient id="paint23_linear_174_7223" x1="1548" y1="946.154" x2="1602.44" y2="950.022" gradientUnits="userSpaceOnUse">
<stop stop-color="#F1610C"/>
<stop offset="1" stop-color="#E11A40"/>
</linearGradient>
<linearGradient id="paint24_linear_174_7223" x1="1461" y1="1149.31" x2="1479.81" y2="1150.64" gradientUnits="userSpaceOnUse">
<stop stop-color="#F1610C"/>
<stop offset="1" stop-color="#E11A40"/>
</linearGradient>
<linearGradient id="paint25_linear_174_7223" x1="103" y1="3318.85" x2="151.501" y2="3322.29" gradientUnits="userSpaceOnUse">
<stop stop-color="#F1610C"/>
<stop offset="1" stop-color="#E11A40"/>
</linearGradient>
<linearGradient id="paint26_linear_174_7223" x1="310" y1="3255.62" x2="321.878" y2="3256.46" gradientUnits="userSpaceOnUse">
<stop stop-color="#F1610C"/>
<stop offset="1" stop-color="#E11A40"/>
</linearGradient>
<linearGradient id="paint27_linear_174_7223" x1="692" y1="547.308" x2="710.806" y2="548.644" gradientUnits="userSpaceOnUse">
<stop stop-color="#F1610C"/>
<stop offset="1" stop-color="#E11A40"/>
</linearGradient>
<linearGradient id="paint28_linear_174_7223" x1="593" y1="1883.31" x2="611.806" y2="1884.64" gradientUnits="userSpaceOnUse">
<stop stop-color="#F1610C"/>
<stop offset="1" stop-color="#E11A40"/>
</linearGradient>
<linearGradient id="paint29_linear_174_7223" x1="1240" y1="2014.15" x2="1294.44" y2="2018.02" gradientUnits="userSpaceOnUse">
<stop stop-color="#F1610C"/>
<stop offset="1" stop-color="#E11A40"/>
</linearGradient>
<linearGradient id="paint30_linear_174_7223" x1="1347" y1="3923.15" x2="1388.57" y2="3926.11" gradientUnits="userSpaceOnUse">
<stop stop-color="#F1610C"/>
<stop offset="1" stop-color="#E11A40"/>
</linearGradient>
<linearGradient id="paint31_linear_174_7223" x1="1474" y1="4411.31" x2="1492.81" y2="4412.64" gradientUnits="userSpaceOnUse">
<stop stop-color="#F1610C"/>
<stop offset="1" stop-color="#E11A40"/>
</linearGradient>
<linearGradient id="paint32_linear_174_7223" x1="459" y1="4071.31" x2="477.806" y2="4072.64" gradientUnits="userSpaceOnUse">
<stop stop-color="#F1610C"/>
<stop offset="1" stop-color="#E11A40"/>
</linearGradient>
<linearGradient id="paint33_linear_174_7223" x1="1286" y1="6293.15" x2="1340.44" y2="6297.02" gradientUnits="userSpaceOnUse">
<stop stop-color="#F1610C"/>
<stop offset="1" stop-color="#E11A40"/>
</linearGradient>
<linearGradient id="paint34_linear_174_7223" x1="1447" y1="7200.31" x2="1465.81" y2="7201.64" gradientUnits="userSpaceOnUse">
<stop stop-color="#F1610C"/>
<stop offset="1" stop-color="#E11A40"/>
</linearGradient>
<linearGradient id="paint35_linear_174_7223" x1="402" y1="6609.31" x2="420.806" y2="6610.64" gradientUnits="userSpaceOnUse">
<stop stop-color="#F1610C"/>
<stop offset="1" stop-color="#E11A40"/>
</linearGradient>
<linearGradient id="paint36_linear_174_7223" x1="1453" y1="8827.08" x2="1499.52" y2="8830.38" gradientUnits="userSpaceOnUse">
<stop stop-color="#F1610C"/>
<stop offset="1" stop-color="#E11A40"/>
</linearGradient>
<linearGradient id="paint37_linear_174_7223" x1="85" y1="9426.31" x2="103.806" y2="9427.64" gradientUnits="userSpaceOnUse">
<stop stop-color="#F1610C"/>
<stop offset="1" stop-color="#E11A40"/>
</linearGradient>
<linearGradient id="paint38_linear_174_7223" x1="1555" y1="7577.31" x2="1573.81" y2="7578.64" gradientUnits="userSpaceOnUse">
<stop stop-color="#F1610C"/>
<stop offset="1" stop-color="#E11A40"/>
</linearGradient>
<clipPath id="clip0_174_7223">
<rect width="1660" height="10007" fill="white"/>
</clipPath>
</defs>
</svg>
