<svg width="157" height="42" viewBox="0 0 157 42" fill="none" xmlns="http://www.w3.org/2000/svg">
<path d="M0 6.27299C0 2.80851 2.80851 0 6.27299 0H7.94293C11.4074 0 14.2159 2.80851 14.2159 6.27299C14.2159 9.73747 11.4074 12.546 7.94294 12.546H6.273C2.80852 12.546 0 9.73747 0 6.27299Z" fill="url(#paint0_linear_168_4457)"/>
<path d="M0 20.5317C0 17.0672 2.80851 14.2587 6.27299 14.2587H7.94293C11.4074 14.2587 14.2159 17.0672 14.2159 20.5317C14.2159 23.9962 11.4074 26.8047 7.94294 26.8047H6.273C2.80852 26.8047 0 23.9962 0 20.5317Z" fill="url(#paint1_linear_168_4457)"/>
<path d="M0 34.7905C0 31.326 2.80851 28.5175 6.27299 28.5175H7.94293C11.4074 28.5175 14.2159 31.326 14.2159 34.7905C14.2159 38.255 11.4074 41.0635 7.94294 41.0635H6.273C2.80852 41.0635 0 38.255 0 34.7905Z" fill="url(#paint2_linear_168_4457)"/>
<path d="M24.1071 41.0635C19.1883 41.0635 15.2007 37.0759 15.2007 32.1571L15.2007 23.1651C15.2007 18.2462 19.1883 14.2587 24.1071 14.2587C29.0259 14.2587 33.0135 18.2462 33.0135 23.1651V32.1571C33.0135 37.0759 29.0259 41.0635 24.1071 41.0635Z" fill="url(#paint3_linear_168_4457)"/>
<path d="M21.4737 12.546C18.0093 12.546 15.2007 9.73748 15.2007 6.273C15.2007 2.80852 18.0093 9.10238e-06 21.4737 8.95094e-06L26.7405 8.72073e-06C30.2049 8.56929e-06 33.0135 2.80852 33.0135 6.273C33.0135 9.73747 30.2049 12.546 26.7405 12.546H21.4737Z" fill="url(#paint4_linear_168_4457)"/>
<path d="M51 27.7162V14.473H59.058C60.6248 14.473 61.8559 14.7946 62.7513 15.4378C63.6466 16.0811 64.0943 16.8946 64.0943 17.8784C64.0943 18.8243 63.6839 19.5685 62.8632 20.1108C62.4752 20.3378 62.0648 20.5081 61.6321 20.6216V20.7162C62.1544 20.8045 62.6543 20.9811 63.1318 21.2459C64.1465 21.8135 64.6538 22.6775 64.6538 23.8378C64.6538 24.973 64.1465 25.9063 63.1318 26.6378C62.132 27.3568 60.7368 27.7162 58.9461 27.7162H51ZM54.3575 19.6757H58.6103C59.252 19.6757 59.7444 19.5559 60.0876 19.3162C60.4458 19.064 60.6248 18.7423 60.6248 18.3514C60.6248 17.9604 60.4458 17.645 60.0876 17.4054C59.7444 17.1532 59.252 17.027 58.6103 17.027H54.3575V19.6757ZM54.3575 25.1622H58.7223C59.543 25.1622 60.1548 25.0234 60.5577 24.7459C60.9755 24.4685 61.1844 24.1027 61.1844 23.6486C61.1844 23.1946 60.9755 22.8288 60.5577 22.5514C60.1548 22.2739 59.543 22.1351 58.7223 22.1351H54.3575V25.1622Z" fill="white"/>
<path d="M66.9584 16.4216C66.6152 16.1315 66.4436 15.7973 66.4436 15.4189C66.4436 15.0405 66.6152 14.7126 66.9584 14.4351C67.3166 14.145 67.7419 14 68.2343 14C68.7267 14 69.1446 14.145 69.4878 14.4351C69.8459 14.7126 70.025 15.0405 70.025 15.4189C70.025 15.7973 69.8459 16.1315 69.4878 16.4216C69.1446 16.6991 68.7267 16.8378 68.2343 16.8378C67.7419 16.8378 67.3166 16.6991 66.9584 16.4216ZM66.6675 27.7162V18.0676H69.8011V27.7162H66.6675Z" fill="white"/>
<path d="M72.2633 27.7162V18.0676H75.397V19.3919H75.5089C75.7178 19.0766 75.9715 18.8117 76.2699 18.5973C77.0011 18.055 77.8666 17.7838 78.8664 17.7838C80.0602 17.7838 81.06 18.0865 81.8658 18.6919C82.194 18.9568 82.4626 19.2532 82.6716 19.5811H82.7835C82.9924 19.2532 83.261 18.9568 83.5893 18.6919C84.3951 18.0865 85.3576 17.7838 86.4767 17.7838C87.8496 17.7838 88.9165 18.1369 89.6775 18.8432C90.4535 19.5369 90.8415 20.5396 90.8415 21.8514V27.7162H87.7078V22.1351C87.7078 20.7477 86.999 20.0541 85.5814 20.0541C84.895 20.0541 84.313 20.2811 83.8355 20.7351C83.358 21.1892 83.1192 21.782 83.1192 22.5135V27.7162H79.9856V22.1351C79.9856 20.7477 79.2767 20.0541 77.8591 20.0541C77.1727 20.0541 76.5907 20.2811 76.1132 20.7351C75.6357 21.1892 75.397 21.782 75.397 22.5135V27.7162H72.2633Z" fill="white"/>
<path d="M92.0629 27.7162L96.2039 14.473H103.255L107.396 27.7162H103.926L103.031 24.7838H96.4277L95.5324 27.7162H92.0629ZM97.2111 22.1351H102.247L100.681 17.1216H98.7779L97.2111 22.1351Z" fill="white"/>
<path d="M107.962 24.5946H111.208C111.312 24.8216 111.476 25.0297 111.7 25.2189C112.178 25.6225 112.834 25.8243 113.67 25.8243C114.938 25.8243 115.572 25.509 115.572 24.8784C115.572 24.7775 115.543 24.6892 115.483 24.6135C115.423 24.5252 115.319 24.4495 115.17 24.3865C115.02 24.3108 114.879 24.2477 114.744 24.1973C114.61 24.1468 114.409 24.0964 114.14 24.0459C113.886 23.9829 113.677 23.9387 113.513 23.9135C113.364 23.8883 113.118 23.8441 112.775 23.7811C112.446 23.718 112.207 23.6739 112.058 23.6486C109.701 23.2198 108.522 22.2423 108.522 20.7162C108.522 19.909 108.947 19.2216 109.798 18.6541C110.663 18.0739 111.842 17.7838 113.334 17.7838C115.334 17.7838 116.833 18.3072 117.833 19.3541C118.266 19.8081 118.557 20.3252 118.706 20.9054H115.572C115.468 20.7162 115.334 20.5586 115.17 20.4324C114.707 20.1171 114.095 19.9595 113.334 19.9595C112.797 19.9595 112.401 20.0351 112.148 20.1865C111.894 20.3252 111.767 20.5018 111.767 20.7162C111.767 20.7919 111.782 20.8676 111.812 20.9432C111.857 21.0063 111.924 21.0694 112.013 21.1324C112.103 21.1829 112.193 21.2333 112.282 21.2838C112.372 21.3216 112.498 21.3658 112.663 21.4162C112.827 21.4541 112.969 21.4919 113.088 21.5297C113.222 21.5676 113.394 21.6054 113.603 21.6432C113.812 21.6811 113.991 21.7126 114.14 21.7378C114.289 21.7631 114.483 21.8009 114.722 21.8514C114.961 21.8892 115.155 21.9207 115.304 21.9459C117.647 22.3874 118.818 23.3649 118.818 24.8784C118.818 25.7234 118.355 26.455 117.43 27.073C116.505 27.691 115.252 28 113.67 28C111.551 28 109.984 27.4324 108.969 26.2973C108.507 25.7802 108.171 25.2126 107.962 24.5946Z" fill="white"/>
<path d="M119.831 24.5946H123.077C123.181 24.8216 123.346 25.0297 123.569 25.2189C124.047 25.6225 124.704 25.8243 125.539 25.8243C126.808 25.8243 127.442 25.509 127.442 24.8784C127.442 24.7775 127.412 24.6892 127.352 24.6135C127.293 24.5252 127.188 24.4495 127.039 24.3865C126.89 24.3108 126.748 24.2477 126.614 24.1973C126.479 24.1468 126.278 24.0964 126.009 24.0459C125.756 23.9829 125.547 23.9387 125.382 23.9135C125.233 23.8883 124.987 23.8441 124.644 23.7811C124.316 23.718 124.077 23.6739 123.928 23.6486C121.57 23.2198 120.391 22.2423 120.391 20.7162C120.391 19.909 120.816 19.2216 121.667 18.6541C122.532 18.0739 123.711 17.7838 125.203 17.7838C127.203 17.7838 128.703 18.3072 129.702 19.3541C130.135 19.8081 130.426 20.3252 130.575 20.9054H127.442C127.337 20.7162 127.203 20.5586 127.039 20.4324C126.576 20.1171 125.964 19.9595 125.203 19.9595C124.666 19.9595 124.271 20.0351 124.017 20.1865C123.763 20.3252 123.637 20.5018 123.637 20.7162C123.637 20.7919 123.651 20.8676 123.681 20.9432C123.726 21.0063 123.793 21.0694 123.883 21.1324C123.972 21.1829 124.062 21.2333 124.151 21.2838C124.241 21.3216 124.368 21.3658 124.532 21.4162C124.696 21.4541 124.838 21.4919 124.957 21.5297C125.091 21.5676 125.263 21.6054 125.472 21.6432C125.681 21.6811 125.86 21.7126 126.009 21.7378C126.158 21.7631 126.352 21.8009 126.591 21.8514C126.83 21.8892 127.024 21.9207 127.173 21.9459C129.516 22.3874 130.687 23.3649 130.687 24.8784C130.687 25.7234 130.225 26.455 129.3 27.073C128.374 27.691 127.121 28 125.539 28C123.42 28 121.853 27.4324 120.839 26.2973C120.376 25.7802 120.04 25.2126 119.831 24.5946Z" fill="white"/>
<path d="M132.775 16.4216C132.432 16.1315 132.26 15.7973 132.26 15.4189C132.26 15.0405 132.432 14.7126 132.775 14.4351C133.133 14.145 133.559 14 134.051 14C134.543 14 134.961 14.145 135.304 14.4351C135.663 14.7126 135.842 15.0405 135.842 15.4189C135.842 15.7973 135.663 16.1315 135.304 16.4216C134.961 16.6991 134.543 16.8378 134.051 16.8378C133.559 16.8378 133.133 16.6991 132.775 16.4216ZM132.484 27.7162V18.0676H135.618V27.7162H132.484Z" fill="white"/>
<path d="M137.297 24.5946H140.542C140.647 24.8216 140.811 25.0297 141.035 25.2189C141.512 25.6225 142.169 25.8243 143.004 25.8243C144.273 25.8243 144.907 25.509 144.907 24.8784C144.907 24.7775 144.877 24.6892 144.817 24.6135C144.758 24.5252 144.653 24.4495 144.504 24.3865C144.355 24.3108 144.213 24.2477 144.079 24.1973C143.944 24.1468 143.743 24.0964 143.474 24.0459C143.221 23.9829 143.012 23.9387 142.848 23.9135C142.698 23.8883 142.452 23.8441 142.109 23.7811C141.781 23.718 141.542 23.6739 141.393 23.6486C139.035 23.2198 137.856 22.2423 137.856 20.7162C137.856 19.909 138.281 19.2216 139.132 18.6541C139.997 18.0739 141.176 17.7838 142.669 17.7838C144.668 17.7838 146.168 18.3072 147.168 19.3541C147.6 19.8081 147.891 20.3252 148.041 20.9054H144.907C144.802 20.7162 144.668 20.5586 144.504 20.4324C144.041 20.1171 143.43 19.9595 142.669 19.9595C142.131 19.9595 141.736 20.0351 141.482 20.1865C141.229 20.3252 141.102 20.5018 141.102 20.7162C141.102 20.7919 141.117 20.8676 141.146 20.9432C141.191 21.0063 141.258 21.0694 141.348 21.1324C141.437 21.1829 141.527 21.2333 141.617 21.2838C141.706 21.3216 141.833 21.3658 141.997 21.4162C142.161 21.4541 142.303 21.4919 142.422 21.5297C142.557 21.5676 142.728 21.6054 142.937 21.6432C143.146 21.6811 143.325 21.7126 143.474 21.7378C143.624 21.7631 143.818 21.8009 144.056 21.8514C144.295 21.8892 144.489 21.9207 144.638 21.9459C146.981 22.3874 148.152 23.3649 148.152 24.8784C148.152 25.7234 147.69 26.455 146.765 27.073C145.84 27.691 144.586 28 143.004 28C140.885 28 139.318 27.4324 138.304 26.2973C137.841 25.7802 137.505 25.2126 137.297 24.5946Z" fill="white"/>
<path d="M149.054 20.3378V18.0676H150.509V15.9865H153.642V18.0676H156.866V20.3378H153.642V25.4459H157V27.7162H150.509V20.3378H149.054Z" fill="white"/>
<defs>
<linearGradient id="paint0_linear_168_4457" x1="0.0032042" y1="20.5262" x2="33.0294" y2="20.5262" gradientUnits="userSpaceOnUse">
<stop stop-color="#F26608"/>
<stop offset="0.6229" stop-color="#E6322E"/>
<stop offset="1" stop-color="#E01742"/>
</linearGradient>
<linearGradient id="paint1_linear_168_4457" x1="0.0032042" y1="20.5262" x2="33.0294" y2="20.5262" gradientUnits="userSpaceOnUse">
<stop stop-color="#F26608"/>
<stop offset="0.6229" stop-color="#E6322E"/>
<stop offset="1" stop-color="#E01742"/>
</linearGradient>
<linearGradient id="paint2_linear_168_4457" x1="0.0032042" y1="20.5262" x2="33.0294" y2="20.5262" gradientUnits="userSpaceOnUse">
<stop stop-color="#F26608"/>
<stop offset="0.6229" stop-color="#E6322E"/>
<stop offset="1" stop-color="#E01742"/>
</linearGradient>
<linearGradient id="paint3_linear_168_4457" x1="0.0032042" y1="20.5262" x2="33.0294" y2="20.5262" gradientUnits="userSpaceOnUse">
<stop stop-color="#F26608"/>
<stop offset="0.6229" stop-color="#E6322E"/>
<stop offset="1" stop-color="#E01742"/>
</linearGradient>
<linearGradient id="paint4_linear_168_4457" x1="0.0032042" y1="20.5262" x2="33.0294" y2="20.5262" gradientUnits="userSpaceOnUse">
<stop stop-color="#F26608"/>
<stop offset="0.6229" stop-color="#E6322E"/>
<stop offset="1" stop-color="#E01742"/>
</linearGradient>
</defs>
</svg>
