<svg width="26" height="33" fill="none" xmlns="http://www.w3.org/2000/svg"><path clip-rule="evenodd" d="M18.1 1.593c.3 1.65-.45 3.3-1.35 4.5-.9 1.2-2.55 2.25-4.2 2.1-.3-1.65.45-3.15 1.35-4.35 1.05-1.2 2.7-2.1 4.2-2.25zm4.8 26.1c.75-1.2 1.2-1.95 1.8-3.3-4.65-1.8-5.4-8.4-.75-10.8-1.35-1.8-3.3-2.7-5.25-2.7-1.35 0-2.25.3-3.15.6-.75.3-1.35.45-2.1.45-.9 0-1.5-.3-2.4-.6-.9-.3-1.8-.6-2.85-.6-2.1 0-4.35 1.2-5.7 3.45-1.95 3-1.65 8.85 1.5 13.65 1.35 1.8 2.85 3.75 4.8 3.75.9 0 1.35-.3 1.95-.45.75-.3 1.5-.6 2.7-.6 1.35 0 1.95.3 2.7.6.6.3 1.05.45 1.95.45 2.1 0 3.6-2.25 4.8-3.9z" stroke="#212121" stroke-width="1.5" stroke-miterlimit="10" stroke-linecap="round" stroke-linejoin="round"/></svg>