<svg width="40" height="41" fill="none" xmlns="http://www.w3.org/2000/svg"><rect y=".593" width="40" height="40" rx="20" fill="#F5F5F5"/><path d="M29.572 26.302c-.903-3.287-3.384-5.106-4.41-5.738 3.597-2.618 3.666-5.63 3.666-5.762a.312.312 0 00-.313-.316h-3.012a.315.315 0 00-.3.222c-.981 3.175-2.972 4.057-3.781 4.288v-4.197a.313.313 0 00-.313-.313h-2.934a.313.313 0 00-.313.313v7.575c-.937-.46-3.28-2.147-3.546-7.588a.315.315 0 00-.313-.296h-3.275a.313.313 0 00-.312.312v1.197c0 5.9 4.8 10.7 10.697 10.7.171 0 .312-.14.312-.313v-3.771c3.287.6 4.203 3.718 4.244 3.853a.314.314 0 00.3.228h3.303a.313.313 0 00.3-.394zm-3.381-.228c-.31-.838-1.62-3.719-5.041-4.131a.294.294 0 00-.244.078.317.317 0 00-.106.234v3.816c-5.41-.169-9.76-4.622-9.76-10.075v-.885h2.673c.443 6.985 4.228 7.982 4.393 8.022a.312.312 0 00.385-.306v-7.719H20.8v4.272a.316.316 0 00.35.313c.131-.016 3.2-.425 4.584-4.582h2.438c-.131.841-.76 3.207-3.766 5.22a.313.313 0 00.035.54c.034.015 3.24 1.647 4.412 5.2h-2.662v.003z" fill="#212121"/></svg>