<svg width="40" height="41" fill="none" xmlns="http://www.w3.org/2000/svg"><rect y=".593" width="40" height="40" rx="20" fill="#F5F5F5"/><g clip-path="url(#clip0_1245_1371)" fill="#212121"><path d="M24.553 16.584c-.225-.181-.528-.185-.584-.185-.422.007-.913.17-3.79 1.366-.954.397-2.888 1.228-5.748 2.475-.6.24-.884.484-.922.794-.068.56.507.74 1.066.915l.213.07c.421.137 1.193.368 1.621.377.385 0 .807-.143 1.25-.447a399.47 399.47 0 013.1-2.078c-.487.466-1.056.997-1.356 1.275-.244.225-.415.388-.453.425-.075.078-.15.15-.222.222-.319.306-.616.594-.581.997.034.384.384.656.644.828.4.263.718.481 1.04.7.353.24.703.481 1.16.778.112.075.218.15.322.225.396.281.803.572 1.312.572.04 0 .081-.003.125-.006.331-.031.766-.275.953-1.263.316-1.684.966-5.496 1.119-7.112a2.08 2.08 0 00-.019-.472.723.723 0 00-.25-.456zm-.35.865c-.15 1.575-.81 5.435-1.112 7.057-.1.54-.27.743-.394.756-.338.031-.638-.181-1.019-.453-.11-.078-.225-.16-.344-.238-.453-.297-.8-.534-1.15-.772-.322-.218-.643-.437-1.047-.703-.337-.222-.362-.34-.365-.365-.01-.104.212-.32.39-.491.079-.075.16-.153.241-.237.035-.035.197-.188.428-.4 2.207-2.05 2.328-2.232 2.369-2.397.025-.11.025-.332-.144-.479a.448.448 0 00-.31-.112c-.074 0-.133.016-.171.022-.097.022-.188.044-4.262 2.794-.338.23-.635.353-.885.34-.25-.006-.79-.134-1.44-.347l-.22-.068c-.227-.072-.53-.166-.621-.244.04-.044.162-.147.528-.29l.01-.004a430.352 430.352 0 015.74-2.472c2.534-1.053 3.231-1.312 3.563-1.319a.297.297 0 01.178.044c.009.01.018.022.028.078.003.053.018.2.01.3z"/><path d="M20 10.67c-5.472 0-9.922 4.45-9.922 9.923 0 5.472 4.45 9.922 9.922 9.922s9.922-4.45 9.922-9.922S25.472 10.67 20 10.67zm0 19.22c-5.125 0-9.297-4.172-9.297-9.297 0-5.125 4.172-9.297 9.297-9.297 5.125 0 9.297 4.172 9.297 9.297 0 5.125-4.172 9.297-9.297 9.297z"/></g><defs><clipPath id="clip0_1245_1371"><path fill="#fff" transform="translate(10 10.593)" d="M0 0h20v20H0z"/></clipPath></defs></svg>