<svg width="40" height="41" fill="none" xmlns="http://www.w3.org/2000/svg"><rect y=".593" width="40" height="40" rx="20" fill="#F5F5F5"/><g clip-path="url(#clip0_1245_1375)" fill="#212121"><path d="M25.06 22.577l-2.31-1.122a.316.316 0 00-.372.075c-.11.122-.272.303-.475.516l-.087.09c-.447.463-.57.588-.682.607-.1.019-.197.003-.49-.138a6.555 6.555 0 01-1.647-1.125 6.926 6.926 0 01-1.084-1.39.729.729 0 01-.013-.275c.047-.279.25-.57.581-.841.1-.081.14-.219.097-.344l-.919-2.684a.317.317 0 00-.296-.213h-1.057a.311.311 0 00-.14.035c-.02.01-1.963 1.015-1.422 3.49.003.02.01.041.018.06.091.212 2.307 5.184 7.057 6.278.028.006.262.044.597.044.762 0 2.053-.2 2.715-1.457a.271.271 0 00.035-.128l.065-1.172a.311.311 0 00-.172-.306zm-.51 1.366c-.76 1.334-2.544 1.043-2.603 1.034-4.253-.978-6.416-5.497-6.594-5.887-.369-1.766.76-2.566 1.04-2.735h.75l.779 2.275c-.356.335-.572.694-.634 1.075-.038.225-.004.422.03.569.007.031.02.06.035.084a7.596 7.596 0 001.21 1.563c.075.075.768.74 1.815 1.244.344.165.588.247.881.187.313-.06.475-.228 1.013-.787l.087-.091c.128-.134.241-.253.335-.356l1.912.928-.056.897z"/><path d="M20 12.077c-4.697 0-8.516 3.819-8.516 8.516 0 1.76.532 3.447 1.541 4.881l-.653 2.44a.322.322 0 00.081.304c.078.078.194.11.303.081l2.466-.66a8.464 8.464 0 004.781 1.473c4.697 0 8.516-3.822 8.516-8.516-.003-4.7-3.822-8.519-8.519-8.519zm0 16.406a7.834 7.834 0 01-4.544-1.44.311.311 0 00-.181-.056.357.357 0 00-.081.009l-2.085.56.553-2.06a.312.312 0 00-.05-.266 7.843 7.843 0 01-1.503-4.637c0-4.353 3.541-7.89 7.891-7.89s7.89 3.537 7.89 7.89c0 4.35-3.54 7.89-7.89 7.89z"/><path d="M20 10.58c-5.522 0-10.012 4.49-10.012 10.013 0 1.712.44 3.4 1.278 4.89L10 30.211a.309.309 0 00.3.394.357.357 0 00.081-.01l4.728-1.265A9.993 9.993 0 0020 30.608c5.522 0 10.013-4.49 10.013-10.012S25.522 10.58 20 10.58zm0 19.4a9.355 9.355 0 01-4.69-1.26.307.307 0 00-.157-.04.357.357 0 00-.081.01l-4.331 1.162 1.159-4.328a.315.315 0 00-.031-.238 9.404 9.404 0 01-1.256-4.693c0-5.175 4.209-9.388 9.387-9.388 5.178 0 9.388 4.213 9.388 9.388 0 5.178-4.21 9.387-9.388 9.387z"/></g><defs><clipPath id="clip0_1245_1375"><path fill="#fff" transform="translate(10 10.593)" d="M0 0h20v20H0z"/></clipPath></defs></svg>